<?xml version="1.0" standalone="no"?>
<!DOCTYPE svg PUBLIC "-//W3C//DTD SVG 20010904//EN"
 "http://www.w3.org/TR/2001/REC-SVG-20010904/DTD/svg10.dtd">
<svg version="1.0" xmlns="http://www.w3.org/2000/svg"
 width="800.000000pt" height="800.000000pt" viewBox="0 0 800.000000 800.000000"
 preserveAspectRatio="xMidYMid meet">
<metadata>
Created by potrace 1.11, written by Peter Selinger 2001-2013
</metadata>
<g transform="translate(0.000000,800.000000) scale(0.100000,-0.100000)"
fill="#000000" stroke="none">
<path d="M3790 7994 c-753 -56 -1387 -267 -1990 -661 -502 -329 -952 -805
-1255 -1328 -800 -1381 -709 -3091 234 -4385 128 -176 252 -319 429 -492 316
-310 609 -519 1002 -716 378 -190 729 -305 1150 -378 150 -27 171 -28 600 -32
373 -3 464 -1 570 13 438 58 872 191 1265 387 1191 596 1997 1717 2185 3038
17 116 20 194 20 550 0 462 -6 535 -75 855 -137 634 -438 1242 -864 1745 -127
149 -388 403 -543 527 -131 105 -380 274 -523 355 -474 269 -998 438 -1555
503 -131 15 -538 27 -650 19z m675 -388 c177 -25 339 -57 351 -70 6 -6 28 -67
49 -136 128 -426 321 -884 519 -1230 107 -186 305 -481 420 -624 94 -118 95
-120 78 -140 -10 -12 -56 -65 -101 -119 l-83 -97 -136 129 c-248 234 -422 374
-673 544 -726 491 -1604 826 -2699 1031 -102 19 -207 38 -235 42 -27 3 -54 9
-58 11 -21 12 276 196 483 299 402 200 802 318 1250 369 167 19 678 13 835 -9z
m755 -181 c379 -130 747 -335 1078 -601 134 -107 382 -338 382 -356 0 -23
-335 -483 -562 -771 l-77 -98 -102 133 c-202 264 -340 488 -504 823 -123 249
-202 440 -288 690 -54 158 -73 225 -64 225 2 0 64 -20 137 -45z m-3355 -701
c248 -37 599 -108 848 -170 1010 -253 1793 -628 2450 -1172 102 -84 377 -350
377 -365 0 -9 -312 -351 -331 -363 -5 -3 -35 17 -67 44 -391 338 -1055 428
-2002 271 -695 -115 -1582 -377 -2604 -768 -87 -34 -161 -61 -164 -61 -7 0 6
163 24 305 107 846 519 1650 1136 2216 93 86 111 98 135 94 15 -3 105 -17 198
-31z m5048 -532 c355 -463 610 -1063 698 -1643 11 -77 18 -143 14 -147 -3 -3
-59 20 -123 52 -389 194 -757 447 -1074 739 -121 111 -235 231 -231 243 0 3
55 74 121 157 135 172 309 405 431 580 45 64 84 117 86 117 1 0 37 -44 78 -98z
m-488 -1291 c304 -261 614 -463 1018 -662 l202 -100 5 -92 c11 -203 -15 -505
-66 -767 -79 -402 -264 -876 -472 -1204 l-30 -46 -7 57 c-15 126 -58 367 -96
543 -192 894 -548 1672 -1045 2281 -42 52 -78 99 -81 106 -2 6 40 63 94 126
l98 114 135 -131 c74 -72 184 -174 245 -225z m-576 -241 c385 -506 680 -1136
854 -1825 78 -308 155 -733 182 -1015 l7 -65 -83 -100 c-109 -133 -359 -381
-484 -481 -435 -347 -895 -581 -1401 -710 -140 -35 -380 -84 -415 -84 -5 0 36
89 90 198 547 1093 861 1991 953 2727 18 149 15 476 -5 613 -30 190 -89 365
-167 494 l-38 63 77 80 c42 44 121 129 176 188 l100 109 33 -39 c19 -21 73
-90 121 -153z m-1601 149 c326 -35 580 -131 760 -285 l44 -37 -114 -114 c-160
-162 -612 -592 -813 -774 -541 -490 -1019 -895 -2115 -1794 l-535 -438 -98
104 c-597 629 -958 1458 -1003 2302 l-7 124 134 53 c552 216 1210 440 1693
576 488 138 1036 248 1406 282 137 13 534 14 648 1z m976 -576 c145 -292 159
-750 41 -1299 -99 -460 -298 -1029 -579 -1655 -98 -220 -277 -594 -369 -771
l-82 -158 -220 0 c-317 0 -514 21 -804 86 -536 120 -1044 364 -1476 707 -47
38 -85 73 -83 77 2 5 246 208 543 451 1470 1205 2070 1728 2755 2405 129 128
236 232 237 231 1 -2 18 -35 37 -74z"/>
</g>
</svg>
