<svg xmlns="http://www.w3.org/2000/svg" fill="none" stroke-linecap="square" stroke-miterlimit="10" width="650" height="225"><rect width="100%" height="100%"/><g class="currentLayer"><title>Layer 1</title><path d="M13.496 130h72v70.992h-72z"/><path d="M13.496 130h72v70.992h-72z"/><path fill="#000" d="M30.324 151.592v-1.61h5.766v5.047q-1.328 1.063-2.75 1.594-1.406.531-2.89.531-2 0-3.641-.859-1.625-.86-2.469-2.484-.828-1.625-.828-3.625 0-1.985.828-3.704.828-1.718 2.39-2.546 1.563-.844 3.594-.844 1.47 0 2.657.484 1.203.469 1.875 1.328.671.844 1.03 2.22l-1.624.437q-.313-1.032-.766-1.625-.453-.594-1.297-.954-.843-.359-1.875-.359-1.234 0-2.14.375-.89.375-1.453 1-.547.61-.844 1.344-.531 1.25-.531 2.734 0 1.813.625 3.047.64 1.219 1.828 1.813 1.203.593 2.547.593 1.171 0 2.28-.453 1.11-.453 1.688-.953v-2.531h-4zm14.371 4.11q-.937.796-1.797 1.124-.86.313-1.843.313-1.61 0-2.485-.782-.875-.796-.875-2.03 0-.735.328-1.329t.86-.953q.53-.36 1.203-.547.5-.14 1.484-.25 2.031-.25 2.985-.578v-.438q0-1.015-.47-1.437-.64-.563-1.905-.563-1.172 0-1.735.407-.562.406-.828 1.468l-1.64-.234q.234-1.047.734-1.687.515-.641 1.469-.985.968-.36 2.25-.36 1.265 0 2.046.298.782.297 1.157.75t.515 1.14q.094.422.094 1.532v2.234q0 2.328.094 2.953.11.61.437 1.172h-1.75q-.265-.516-.328-1.219zm-.14-3.72q-.907.36-2.735.625-1.031.141-1.453.329-.422.187-.656.546-.235.36-.235.797 0 .672.5 1.125.516.438 1.485.438.969 0 1.719-.422.75-.438 1.109-1.156.266-.578.266-1.672v-.61zm4.078 4.938v-9.86h1.5v1.391q.454-.719 1.22-1.156.78-.453 1.765-.453 1.094 0 1.797.453.703.453.984 1.281 1.172-1.734 3.047-1.734 1.469 0 2.25.812.797.813.797 2.5v6.766H60.32v-6.203q0-1-.156-1.438-.157-.453-.594-.718-.422-.266-1-.266-1.031 0-1.719.687-.687.688-.687 2.22v5.718h-1.672v-6.406q0-1.11-.406-1.657-.407-.562-1.344-.562-.703 0-1.313.375-.593.36-.86 1.078-.265.719-.265 2.063v5.109h-1.672zm22.291-3.172l1.719.219q-.406 1.5-1.516 2.344-1.093.828-2.812.828-2.156 0-3.422-1.328-1.266-1.329-1.266-3.735 0-2.484 1.266-3.86 1.281-1.374 3.328-1.374 1.984 0 3.234 1.344 1.25 1.343 1.25 3.796 0 .141-.015.438h-7.344q.094 1.625.922 2.484.828.86 2.062.86.907 0 1.547-.469.657-.484 1.047-1.547zm-5.484-2.703h5.5q-.11-1.234-.625-1.86-.797-.968-2.078-.968-1.14 0-1.938.781-.781.766-.86 2.047zM25.293 178.92h-1.547v-13.594h1.656v4.844q1.063-1.328 2.704-1.328.906 0 1.718.375.813.36 1.328 1.031.532.656.829 1.594.296.937.296 2 0 2.531-1.25 3.922-1.25 1.375-3 1.375t-2.734-1.453v1.234zm-.016-5q0 1.766.47 2.562.796 1.282 2.14 1.282 1.094 0 1.89-.938.797-.953.797-2.844 0-1.921-.765-2.843-.766-.922-1.844-.922-1.094 0-1.89.953-.798.953-.798 2.75zm15.595 1.828l1.719.219q-.407 1.5-1.516 2.344-1.094.828-2.812.828-2.157 0-3.422-1.328-1.266-1.329-1.266-3.735 0-2.484 1.266-3.86 1.281-1.374 3.328-1.374 1.984 0 3.234 1.344 1.25 1.343 1.25 3.796 0 .141-.015.438h-7.344q.094 1.625.922 2.484.828.86 2.062.86.906 0 1.547-.469.656-.484 1.047-1.547zm-5.484-2.703h5.5q-.11-1.234-.625-1.86-.797-.968-2.079-.968-1.14 0-1.937.781-.781.766-.86 2.047zm8.813 6.687l1.61.25q.109.75.577 1.094.61.453 1.688.453 1.172 0 1.797-.468.625-.454.859-1.282.125-.515.11-2.156-1.094 1.297-2.72 1.297-2.03 0-3.156-1.469-1.109-1.469-1.109-3.515 0-1.407.516-2.594.515-1.203 1.484-1.844.969-.656 2.266-.656 1.75 0 2.875 1.406v-1.187h1.547v8.515q0 2.313-.47 3.266-.468.969-1.484 1.515-1.015.563-2.5.563-1.765 0-2.859-.797-1.078-.797-1.031-2.39zm1.375-5.921q0 1.953.765 2.843.782.891 1.938.891 1.14 0 1.922-.89.781-.891.781-2.782 0-1.812-.812-2.719-.797-.922-1.922-.922-1.11 0-1.891.907-.781.89-.781 2.672zm9.313-6.579v-1.906h1.672v1.906h-1.672zm0 11.688v-9.86h1.672v9.86h-1.672zm4.13 0v-9.86h1.5v1.407q1.093-1.625 3.14-1.625.89 0 1.64.328.75.312 1.11.844.375.515.531 1.218.094.47.094 1.625v6.063h-1.672v-6q0-1.016-.203-1.516-.188-.515-.688-.812-.5-.297-1.172-.297-1.062 0-1.843.672-.766.672-.766 2.578v5.375h-1.672z"/><path d="M41.496 116.667l584.032-2.016"/><path stroke="#000" stroke-width="4" stroke-linejoin="round" stroke-linecap="butt" d="M56.656 116.614l544.872-1.88"/><path fill="#000" stroke="#000" stroke-width="4" stroke-linecap="butt" d="M56.679 123.194l-13.16.046-.045-13.16 13.16-.046.045 13.16z"/><path d="M206.496 92v24"/><path stroke="red" stroke-width="4" stroke-linejoin="round" stroke-linecap="butt" d="M206.496 92v24"/><path d="M138.496 12h168v72h-168z"/><path fill="#000" d="M148.965 38.92V25.326h5.125q1.36 0 2.078.125 1 .172 1.672.64.672.47 1.078 1.313.422.844.422 1.844 0 1.735-1.11 2.938-1.093 1.203-3.984 1.203h-3.484v5.531h-1.797zm1.797-7.14h3.515q1.75 0 2.47-.641.734-.656.734-1.828 0-.86-.438-1.47-.422-.608-1.125-.796-.453-.125-1.672-.125h-3.484v4.86zm10.397 7.14V25.326h1.671V38.92h-1.671zm10.613-1.219q-.937.797-1.797 1.125-.86.313-1.843.313-1.61 0-2.485-.781-.875-.797-.875-2.032 0-.734.328-1.328.328-.594.86-.953.53-.36 1.203-.547.5-.14 1.484-.25 2.031-.25 2.985-.578v-.437q0-1.016-.47-1.438-.64-.562-1.905-.562-1.172 0-1.735.406-.562.406-.828 1.469l-1.64-.235q.234-1.047.734-1.687.515-.641 1.469-.985.968-.36 2.25-.36 1.265 0 2.046.298.782.297 1.157.75t.515 1.14q.094.422.094 1.532v2.234q0 2.328.094 2.953.11.61.437 1.172h-1.75q-.265-.516-.328-1.219zm-.14-3.718q-.907.359-2.735.625-1.031.14-1.453.328-.422.187-.656.547-.235.359-.235.796 0 .672.5 1.125.516.438 1.485.438.969 0 1.719-.422.75-.437 1.109-1.156.266-.578.266-1.672v-.61zm4 8.734l-.172-1.563q.547.141.953.141.547 0 .875-.187.344-.188.563-.516.156-.25.5-1.25.047-.14.156-.406l-3.734-9.875h1.797l2.047 5.718q.406 1.079.718 2.282.282-1.157.688-2.25l2.094-5.75h1.671l-3.75 10.03q-.593 1.626-.937 2.235-.438.828-1.016 1.203-.578.391-1.375.391-.484 0-1.078-.203zm16.156-6.969l1.72.219q-.407 1.5-1.516 2.344-1.094.828-2.813.828-2.156 0-3.422-1.328-1.265-1.328-1.265-3.735 0-2.484 1.265-3.86 1.281-1.374 3.328-1.374 1.985 0 3.235 1.344 1.25 1.343 1.25 3.797 0 .14-.016.437h-7.344q.094 1.625.922 2.484.828.86 2.063.86.906 0 1.547-.469.656-.484 1.046-1.547zm-5.484-2.703h5.5q-.11-1.234-.625-1.86-.797-.968-2.078-.968-1.14 0-1.938.781-.78.766-.859 2.047zm9.095 5.875v-9.86h1.5v1.5q.578-1.046 1.062-1.374.484-.344 1.078-.344.844 0 1.719.547l-.578 1.547q-.61-.36-1.235-.36-.546 0-.984.328-.422.329-.61.907-.28.89-.28 1.953v5.156h-1.672zm11.114.234l.813-3.953h-1.578v-1.39h1.859l.688-3.36h-2.547v-1.39h2.812l.813-3.97h1.39l-.812 3.97h2.922l.812-3.97h1.406l-.812 3.97h1.61v1.39h-1.891l-.688 3.36h2.578v1.39h-2.86l-.812 3.953h-1.39l.797-3.953h-2.907l-.812 3.953h-1.39zm2.485-5.343h2.906l.703-3.36h-2.922l-.687 3.36zm7.735 1.515l1.672-.218q.28 1.421.968 2.046.704.625 1.688.625 1.187 0 2-.812.812-.828.812-2.031 0-1.141-.765-1.891-.75-.75-1.906-.75-.47 0-1.172.188l.187-1.47q.156.016.266.016 1.062 0 1.906-.546.86-.563.86-1.72 0-.921-.626-1.515-.609-.61-1.593-.61-.97 0-1.625.61-.641.61-.828 1.844l-1.672-.297q.297-1.687 1.375-2.61 1.093-.921 2.718-.921 1.11 0 2.047.484.938.469 1.422 1.297.5.828.5 1.75 0 .89-.469 1.61-.468.718-1.406 1.156 1.219.265 1.875 1.156.672.875.672 2.187 0 1.782-1.297 3.016t-3.281 1.234q-1.797 0-2.984-1.062-1.172-1.063-1.344-2.766zm16.657 3.594h-1.672V28.28q-.594.578-1.578 1.156-.985.562-1.766.859V28.67q1.406-.656 2.453-1.594 1.047-.937 1.485-1.812h1.078V38.92zm9.106-4.922q0-2.734 1.53-4.062 1.267-1.094 3.095-1.094 2.03 0 3.312 1.344 1.297 1.328 1.297 3.672 0 1.906-.578 3-.563 1.078-1.656 1.687-1.078.594-2.375.594-2.063 0-3.344-1.328-1.281-1.328-1.281-3.813zm1.718 0q0 1.89.829 2.828.828.938 2.078.938t2.062-.938q.828-.953.828-2.89 0-1.828-.828-2.766-.828-.937-2.062-.937-1.25 0-2.078.937-.829.938-.829 2.828zm15.735 4.922v-1.453q-1.14 1.672-3.125 1.672-.859 0-1.625-.328-.75-.344-1.125-.844-.359-.5-.515-1.234-.094-.5-.094-1.563v-6.11h1.672v5.47q0 1.312.094 1.765.156.656.672 1.031.515.375 1.265.375.75 0 1.406-.375.657-.39.922-1.047.282-.671.282-1.937V29.06h1.671v9.859h-1.5zm7.58-1.5l.234 1.484q-.703.141-1.266.141-.906 0-1.406-.281-.5-.297-.703-.75-.203-.469-.203-1.985v-5.656h-1.235v-1.312h1.235v-2.438l1.656-1v3.438h1.687v1.312h-1.687v5.75q0 .719.078.922.094.203.297.328.203.125.578.125.266 0 .734-.078zm-118.564 23.5V47.326h5.125q1.36 0 2.078.125 1 .172 1.672.64.672.47 1.078 1.313.422.844.422 1.844 0 1.735-1.11 2.938-1.093 1.203-3.984 1.203h-3.484v5.531h-1.797zm1.797-7.14h3.515q1.75 0 2.47-.641.734-.656.734-1.828 0-.86-.438-1.47-.422-.608-1.125-.796-.453-.125-1.672-.125h-3.484v4.86zm10.397 7.14V47.326h1.671V60.92h-1.671zm10.613-1.219q-.937.797-1.797 1.125-.86.313-1.843.313-1.61 0-2.485-.781-.875-.797-.875-2.032 0-.734.328-1.328.328-.594.86-.953.53-.36 1.203-.547.5-.14 1.484-.25 2.031-.25 2.985-.578v-.437q0-1.016-.47-1.438-.64-.562-1.905-.562-1.172 0-1.735.406-.562.406-.828 1.469l-1.64-.235q.234-1.047.734-1.687.515-.641 1.469-.985.968-.36 2.25-.36 1.265 0 2.046.298.782.297 1.157.75t.515 1.14q.094.422.094 1.532v2.234q0 2.328.094 2.953.11.61.437 1.172h-1.75q-.265-.516-.328-1.219zm-.14-3.718q-.907.359-2.735.625-1.031.14-1.453.328-.422.187-.656.547-.235.359-.235.796 0 .672.5 1.125.516.438 1.485.438.969 0 1.719-.422.75-.437 1.109-1.156.266-.578.266-1.672v-.61zm4 8.734l-.172-1.563q.547.141.953.141.547 0 .875-.187.344-.188.563-.516.156-.25.5-1.25.047-.14.156-.406l-3.734-9.875h1.797l2.047 5.718q.406 1.079.718 2.282.282-1.157.688-2.25l2.094-5.75h1.671l-3.75 10.03q-.593 1.626-.937 2.235-.438.828-1.016 1.203-.578.391-1.375.391-.484 0-1.078-.203zm16.156-6.969l1.72.219q-.407 1.5-1.516 2.344-1.094.828-2.813.828-2.156 0-3.422-1.328-1.265-1.328-1.265-3.735 0-2.484 1.265-3.86 1.281-1.374 3.328-1.374 1.985 0 3.235 1.344 1.25 1.343 1.25 3.797 0 .14-.016.437h-7.344q.094 1.625.922 2.484.828.86 2.063.86.906 0 1.547-.469.656-.484 1.046-1.547zm-5.484-2.703h5.5q-.11-1.234-.625-1.86-.797-.968-2.078-.968-1.14 0-1.938.781-.78.766-.859 2.047zm9.095 5.875v-9.86h1.5v1.5q.578-1.046 1.062-1.374.484-.344 1.078-.344.844 0 1.719.547l-.578 1.547q-.61-.36-1.235-.36-.546 0-.984.328-.422.329-.61.907-.28.89-.28 1.953v5.156h-1.672zm11.114.234l.813-3.953h-1.578v-1.39h1.859l.688-3.36h-2.547v-1.39h2.812l.813-3.97h1.39l-.812 3.97h2.922l.812-3.97h1.406l-.812 3.97h1.61v1.39h-1.891l-.688 3.36h2.578v1.39h-2.86l-.812 3.953h-1.39l.797-3.953h-2.907l-.812 3.953h-1.39zm2.485-5.343h2.906l.703-3.36h-2.922l-.687 3.36zm16.5 3.5v1.609h-8.984q-.016-.61.188-1.156.343-.922 1.093-1.813.766-.89 2.188-2.062 2.219-1.813 3-2.875.781-1.063.781-2.016 0-.984-.719-1.672-.703-.687-1.843-.687-1.204 0-1.938.734-.719.719-.719 2l-1.718-.172q.171-1.922 1.328-2.922 1.156-1.015 3.093-1.015 1.954 0 3.094 1.094 1.14 1.078 1.14 2.687 0 .813-.343 1.61-.328.78-1.11 1.656-.765.859-2.562 2.39-1.5 1.266-1.937 1.719-.422.438-.703.89h6.671zm1.61-1.985l1.672-.218q.282 1.421.97 2.046.702.625 1.687.625 1.187 0 2-.812.812-.828.812-2.031 0-1.141-.766-1.891-.75-.75-1.906-.75-.469 0-1.172.188l.188-1.47q.156.016.265.016 1.063 0 1.907-.546.86-.563.86-1.72 0-.921-.626-1.515-.61-.61-1.594-.61-.968 0-1.625.61-.64.61-.828 1.844l-1.672-.297q.297-1.687 1.375-2.61 1.094-.921 2.72-.921 1.108 0 2.046.484.937.469 1.422 1.297.5.828.5 1.75 0 .89-.469 1.61-.469.718-1.406 1.156 1.219.265 1.875 1.156.672.875.672 2.187 0 1.782-1.297 3.016t-3.281 1.234q-1.797 0-2.985-1.062-1.172-1.063-1.344-2.766zm16.028-8.093v-1.907h1.672v1.907h-1.672zm0 11.687v-9.86h1.672v9.86h-1.672zm4.13 0v-9.86h1.5v1.407q1.093-1.625 3.14-1.625.89 0 1.64.328.75.313 1.11.844.375.515.531 1.219.094.468.094 1.625v6.062h-1.672v-6q0-1.016-.203-1.516-.187-.515-.687-.812-.5-.297-1.172-.297-1.063 0-1.844.672-.766.672-.766 2.578v5.375h-1.672z"/><path d="M295.496 148h168v72h-168z"/><path fill="#000" d="M305.965 174.92v-13.594h5.125q1.36 0 2.078.125 1 .172 1.672.64.672.47 1.078 1.313.422.844.422 1.844 0 1.734-1.11 2.938-1.093 1.203-3.984 1.203h-3.484v5.531h-1.797zm1.797-7.14h3.515q1.75 0 2.47-.641.734-.657.734-1.828 0-.86-.438-1.47-.422-.609-1.125-.796-.453-.125-1.672-.125h-3.484v4.86zm10.397 7.14v-13.594h1.671v13.594h-1.671zm10.613-1.219q-.937.797-1.797 1.125-.86.313-1.844.313-1.609 0-2.484-.782-.875-.796-.875-2.03 0-.735.328-1.329t.86-.953q.53-.36 1.203-.547.5-.14 1.484-.25 2.031-.25 2.984-.578v-.438q0-1.015-.468-1.437-.64-.563-1.907-.563-1.171 0-1.734.407-.562.406-.828 1.468l-1.64-.234q.234-1.047.734-1.687.515-.641 1.468-.985.97-.36 2.25-.36 1.266 0 2.047.298.782.297 1.157.75t.515 1.14q.094.422.094 1.532v2.234q0 2.328.094 2.953.11.61.437 1.172h-1.75q-.265-.516-.328-1.219zm-.14-3.719q-.907.36-2.735.625-1.031.141-1.453.329-.422.187-.656.546-.235.36-.235.797 0 .672.5 1.125.516.438 1.485.438.968 0 1.718-.422.75-.438 1.11-1.156.265-.578.265-1.672v-.61zm4 8.735l-.172-1.563q.547.141.953.141.547 0 .875-.188.344-.187.563-.515.156-.25.5-1.25.047-.14.156-.406l-3.734-9.875h1.797l2.047 5.718q.406 1.078.718 2.282.282-1.157.688-2.25l2.094-5.75h1.671l-3.75 10.03q-.593 1.626-.937 2.235-.438.828-1.016 1.203-.578.391-1.375.391-.484 0-1.078-.203zm16.156-6.969l1.72.219q-.407 1.5-1.516 2.344-1.094.828-2.813.828-2.156 0-3.422-1.328-1.265-1.329-1.265-3.735 0-2.484 1.265-3.86 1.281-1.374 3.328-1.374 1.985 0 3.235 1.344 1.25 1.343 1.25 3.796 0 .141-.016.438h-7.344q.094 1.625.922 2.484.828.86 2.063.86.906 0 1.547-.469.656-.484 1.046-1.547zm-5.484-2.703h5.5q-.11-1.234-.625-1.86-.797-.968-2.078-.968-1.14 0-1.938.781-.78.766-.859 2.047zm9.095 5.875v-9.86h1.5v1.5q.578-1.046 1.062-1.374.484-.344 1.078-.344.844 0 1.719.547l-.578 1.547q-.61-.36-1.235-.36-.546 0-.984.328-.422.328-.61.907-.28.89-.28 1.953v5.156h-1.672zm11.114.234l.813-3.953h-1.578v-1.39h1.86l.687-3.36h-2.547v-1.39h2.812l.813-3.97h1.39l-.812 3.97h2.922l.812-3.97h1.406l-.812 3.97h1.61v1.39h-1.891l-.688 3.36h2.578v1.39h-2.86l-.812 3.953h-1.39l.797-3.953h-2.907l-.812 3.953h-1.39zm2.485-5.343h2.906l.703-3.36h-2.922l-.687 3.36zm16.391-5.157l-1.656.125q-.219-.984-.64-1.422-.673-.718-1.657-.718-.813 0-1.406.437-.797.578-1.25 1.688-.453 1.093-.47 3.14.61-.922 1.47-1.359.875-.453 1.828-.453 1.672 0 2.844 1.234 1.171 1.235 1.171 3.172 0 1.281-.546 2.39-.547 1.094-1.516 1.688-.969.578-2.188.578-2.093 0-3.406-1.53-1.312-1.548-1.312-5.063 0-3.954 1.453-5.735 1.265-1.562 3.422-1.562 1.609 0 2.625.906 1.03.89 1.234 2.484zm-6.812 5.86q0 .86.359 1.656.375.781 1.031 1.203.656.406 1.375.406 1.063 0 1.813-.843.765-.86.765-2.329 0-1.406-.75-2.218-.75-.813-1.89-.813-1.125 0-1.922.813-.781.812-.781 2.125zm8.516.843l1.765-.156q.188 1.281.891 1.938.719.64 1.719.64 1.203 0 2.031-.906.844-.906.844-2.422 0-1.422-.813-2.25-.797-.828-2.093-.828-.797 0-1.454.375-.64.36-1.015.953l-1.578-.203 1.328-7h6.765v1.61h-5.437l-.734 3.64q1.234-.844 2.578-.844 1.781 0 3 1.235 1.234 1.234 1.234 3.172 0 1.843-1.078 3.187-1.313 1.656-3.578 1.656-1.86 0-3.031-1.03-1.172-1.048-1.344-2.767zm15.403-1.359q0-2.734 1.53-4.062 1.267-1.094 3.095-1.094 2.03 0 3.312 1.344 1.297 1.328 1.297 3.671 0 1.907-.578 3-.563 1.079-1.656 1.688-1.078.594-2.375.594-2.063 0-3.344-1.328-1.281-1.329-1.281-3.813zm1.718 0q0 1.89.829 2.828.828.938 2.078.938t2.062-.938q.828-.953.828-2.89 0-1.829-.828-2.766-.828-.938-2.062-.938-1.25 0-2.078.938-.829.937-.829 2.828zm15.735 4.922v-1.453q-1.14 1.672-3.125 1.672-.859 0-1.625-.328-.75-.344-1.125-.844-.359-.5-.515-1.235-.094-.5-.094-1.562v-6.11h1.672v5.47q0 1.312.094 1.765.156.656.672 1.031.515.375 1.265.375.75 0 1.406-.375.657-.39.922-1.047.282-.672.282-1.937v-5.281h1.671v9.859h-1.5zm7.58-1.5l.234 1.484q-.703.141-1.266.141-.906 0-1.406-.281-.5-.297-.703-.75-.203-.469-.203-1.985v-5.656h-1.235v-1.312h1.235v-2.438l1.656-1v3.438h1.687v1.312h-1.687v5.75q0 .719.078.922.094.203.297.328.203.125.578.125.266 0 .734-.078zm-118.564 23.5v-13.594h5.125q1.36 0 2.078.125 1 .172 1.672.64.672.47 1.078 1.313.422.844.422 1.844 0 1.734-1.11 2.938-1.093 1.203-3.984 1.203h-3.484v5.531h-1.797zm1.797-7.14h3.515q1.75 0 2.47-.641.734-.657.734-1.828 0-.86-.438-1.47-.422-.609-1.125-.796-.453-.125-1.672-.125h-3.484v4.86zm10.397 7.14v-13.594h1.671v13.594h-1.671zm10.613-1.219q-.937.797-1.797 1.125-.86.313-1.844.313-1.609 0-2.484-.782-.875-.796-.875-2.03 0-.735.328-1.329t.86-.953q.53-.36 1.203-.547.5-.14 1.484-.25 2.031-.25 2.984-.578v-.438q0-1.015-.468-1.437-.64-.563-1.907-.563-1.171 0-1.734.407-.562.406-.828 1.468l-1.64-.234q.234-1.047.734-1.687.515-.641 1.468-.985.97-.36 2.25-.36 1.266 0 2.047.298.782.297 1.157.75t.515 1.14q.094.422.094 1.532v2.234q0 2.328.094 2.953.11.61.437 1.172h-1.75q-.265-.516-.328-1.219zm-.14-3.719q-.907.36-2.735.625-1.031.141-1.453.329-.422.187-.656.546-.235.36-.235.797 0 .672.5 1.125.516.438 1.485.438.968 0 1.718-.422.75-.438 1.11-1.156.265-.578.265-1.672v-.61zm4 8.735l-.172-1.563q.547.141.953.141.547 0 .875-.188.344-.187.563-.515.156-.25.5-1.25.047-.14.156-.406l-3.734-9.875h1.797l2.047 5.718q.406 1.078.718 2.282.282-1.157.688-2.25l2.094-5.75h1.671l-3.75 10.03q-.593 1.626-.937 2.235-.438.828-1.016 1.203-.578.391-1.375.391-.484 0-1.078-.203zm16.156-6.969l1.72.219q-.407 1.5-1.516 2.344-1.094.828-2.813.828-2.156 0-3.422-1.328-1.265-1.329-1.265-3.735 0-2.484 1.265-3.86 1.281-1.374 3.328-1.374 1.985 0 3.235 1.344 1.25 1.343 1.25 3.796 0 .141-.016.438h-7.344q.094 1.625.922 2.484.828.86 2.063.86.906 0 1.547-.469.656-.484 1.046-1.547zm-5.484-2.703h5.5q-.11-1.234-.625-1.86-.797-.968-2.078-.968-1.14 0-1.938.781-.78.766-.859 2.047zm9.095 5.875v-9.86h1.5v1.5q.578-1.046 1.062-1.374.484-.344 1.078-.344.844 0 1.719.547l-.578 1.547q-.61-.36-1.235-.36-.546 0-.984.328-.422.328-.61.907-.28.89-.28 1.953v5.156h-1.672zm11.114.234l.813-3.953h-1.578v-1.39h1.86l.687-3.36h-2.547v-1.39h2.812l.813-3.97h1.39l-.812 3.97h2.922l.812-3.97h1.406l-.812 3.97h1.61v1.39h-1.891l-.688 3.36h2.578v1.39h-2.86l-.812 3.953h-1.39l.797-3.953h-2.907l-.812 3.953h-1.39zm2.485-5.343h2.906l.703-3.36h-2.922l-.687 3.36zm16.5 3.5v1.609h-8.984q-.016-.61.188-1.156.343-.922 1.093-1.813.766-.89 2.188-2.062 2.219-1.813 3-2.875.781-1.063.781-2.016 0-.984-.719-1.672-.703-.687-1.843-.687-1.204 0-1.938.734-.719.719-.719 2l-1.718-.172q.171-1.922 1.328-2.922 1.156-1.015 3.093-1.015 1.954 0 3.094 1.093 1.14 1.079 1.14 2.688 0 .812-.343 1.61-.328.78-1.11 1.656-.765.859-2.562 2.39-1.5 1.266-1.937 1.719-.422.437-.703.89h6.671zm10.376 0v1.609h-8.984q-.016-.61.187-1.156.344-.922 1.094-1.813.766-.89 2.187-2.062 2.22-1.813 3-2.875.782-1.063.782-2.016 0-.984-.719-1.672-.703-.687-1.844-.687-1.203 0-1.937.734-.719.719-.719 2l-1.719-.172q.172-1.922 1.328-2.922 1.157-1.015 3.094-1.015 1.953 0 3.094 1.093 1.14 1.079 1.14 2.688 0 .812-.343 1.61-.328.78-1.11 1.656-.765.859-2.562 2.39-1.5 1.266-1.938 1.719-.422.437-.703.89h6.672zm7.262-10.079v-1.906h1.672v1.906h-1.672zm0 11.688v-9.86h1.672v9.86h-1.672zm4.13 0v-9.86h1.5v1.407q1.093-1.625 3.14-1.625.89 0 1.64.328.75.312 1.11.844.375.515.531 1.218.094.47.094 1.625v6.063h-1.672v-6q0-1.016-.203-1.516-.187-.515-.687-.812-.5-.297-1.172-.297-1.063 0-1.844.672-.766.672-.766 2.578v5.375h-1.672z"/><path d="M440.496 12h168v72h-168z"/><path fill="#000" d="M450.965 38.92V25.326h5.125q1.36 0 2.078.125 1 .172 1.672.64.672.47 1.078 1.313.422.844.422 1.844 0 1.735-1.11 2.938-1.093 1.203-3.984 1.203h-3.484v5.531h-1.797zm1.797-7.14h3.515q1.75 0 2.47-.641.734-.656.734-1.828 0-.86-.438-1.47-.422-.608-1.125-.796-.453-.125-1.672-.125h-3.484v4.86zm10.397 7.14V25.326h1.671V38.92h-1.671zm10.613-1.219q-.937.797-1.797 1.125-.86.313-1.844.313-1.609 0-2.484-.781-.875-.797-.875-2.032 0-.734.328-1.328.328-.594.86-.953.53-.36 1.203-.547.5-.14 1.484-.25 2.031-.25 2.984-.578v-.437q0-1.016-.468-1.438-.64-.562-1.907-.562-1.171 0-1.734.406-.562.406-.828 1.469l-1.64-.235q.234-1.047.734-1.687.515-.641 1.468-.985.97-.36 2.25-.36 1.266 0 2.047.298.782.297 1.157.75t.515 1.14q.094.422.094 1.532v2.234q0 2.328.094 2.953.11.61.437 1.172h-1.75q-.265-.516-.328-1.219zm-.14-3.718q-.907.359-2.735.625-1.031.14-1.453.328-.422.187-.656.547-.235.359-.235.796 0 .672.5 1.125.516.438 1.485.438.968 0 1.718-.422.75-.437 1.11-1.156.265-.578.265-1.672v-.61zm4 8.734l-.172-1.563q.547.141.953.141.547 0 .875-.187.344-.188.563-.516.156-.25.5-1.25.047-.14.156-.406l-3.734-9.875h1.797l2.047 5.718q.406 1.079.718 2.282.282-1.157.688-2.25l2.094-5.75h1.671l-3.75 10.03q-.593 1.626-.937 2.235-.438.828-1.016 1.203-.578.391-1.375.391-.484 0-1.078-.203zm16.156-6.969l1.72.219q-.407 1.5-1.516 2.344-1.094.828-2.813.828-2.156 0-3.422-1.328-1.265-1.328-1.265-3.735 0-2.484 1.265-3.86 1.281-1.374 3.328-1.374 1.985 0 3.235 1.344 1.25 1.343 1.25 3.797 0 .14-.016.437h-7.344q.094 1.625.922 2.484.828.86 2.063.86.906 0 1.547-.469.656-.484 1.046-1.547zm-5.484-2.703h5.5q-.11-1.234-.625-1.86-.797-.968-2.078-.968-1.14 0-1.938.781-.78.766-.859 2.047zm9.095 5.875v-9.86h1.5v1.5q.578-1.046 1.062-1.374.484-.344 1.078-.344.844 0 1.719.547l-.578 1.547q-.61-.36-1.235-.36-.546 0-.984.328-.422.329-.61.907-.28.89-.28 1.953v5.156h-1.672zm11.114.234l.813-3.953h-1.578v-1.39h1.86l.687-3.36h-2.547v-1.39h2.812l.813-3.97h1.39l-.812 3.97h2.922l.812-3.97h1.406l-.812 3.97h1.61v1.39h-1.891l-.688 3.36h2.578v1.39h-2.859l-.813 3.953h-1.39l.797-3.953h-2.907l-.812 3.953h-1.39zm2.485-5.343h2.906l.703-3.36h-2.922l-.687 3.36zm14.016 5.109h-1.672V28.28q-.594.578-1.578 1.156-.984.562-1.766.859V28.67q1.407-.656 2.454-1.594 1.046-.937 1.484-1.812h1.078V38.92zm4.344-3.14l1.594-.157q.203 1.14.781 1.656.579.5 1.485.5.765 0 1.344-.343.578-.36.953-.953.375-.594.625-1.594t.25-2.031q0-.11-.016-.344-.5.797-1.375 1.297-.86.5-1.875.5-1.687 0-2.86-1.22-1.171-1.233-1.171-3.233 0-2.079 1.219-3.329 1.234-1.265 3.062-1.265 1.328 0 2.422.719 1.11.703 1.672 2.03.578 1.329.578 3.829 0 2.61-.578 4.156-.563 1.547-1.688 2.36-1.109.796-2.609.796-1.594 0-2.61-.89-1-.89-1.203-2.485zm6.829-6q0-1.438-.766-2.282-.766-.86-1.844-.86-1.11 0-1.937.923-.828.906-.828 2.343 0 1.313.78 2.125.798.797 1.938.797 1.172 0 1.907-.797.75-.812.75-2.25zm8.309 4.218q0-2.734 1.53-4.062 1.267-1.094 3.095-1.094 2.03 0 3.312 1.344 1.297 1.328 1.297 3.672 0 1.906-.578 3-.563 1.078-1.656 1.687-1.078.594-2.375.594-2.063 0-3.344-1.328-1.281-1.328-1.281-3.813zm1.718 0q0 1.89.829 2.828.828.938 2.078.938t2.062-.938q.828-.953.828-2.89 0-1.828-.828-2.766-.828-.937-2.062-.937-1.25 0-2.078.937-.829.938-.829 2.828zm15.735 4.922v-1.453q-1.14 1.672-3.125 1.672-.859 0-1.625-.328-.75-.344-1.125-.844-.359-.5-.515-1.234-.094-.5-.094-1.563v-6.11h1.672v5.47q0 1.312.094 1.765.156.656.672 1.031.515.375 1.265.375.75 0 1.406-.375.657-.39.922-1.047.282-.671.282-1.937V29.06h1.671v9.859h-1.5zm7.58-1.5l.234 1.484q-.703.141-1.266.141-.906 0-1.406-.281-.5-.297-.703-.75-.203-.469-.203-1.985v-5.656h-1.235v-1.312h1.235v-2.438l1.656-1v3.438h1.687v1.312h-1.687v5.75q0 .719.078.922.094.203.297.328.203.125.578.125.266 0 .734-.078zm-118.564 23.5V47.326h5.125q1.36 0 2.078.125 1 .172 1.672.64.672.47 1.078 1.313.422.844.422 1.844 0 1.735-1.11 2.938-1.093 1.203-3.984 1.203h-3.484v5.531h-1.797zm1.797-7.14h3.515q1.75 0 2.47-.641.734-.656.734-1.828 0-.86-.438-1.47-.422-.608-1.125-.796-.453-.125-1.672-.125h-3.484v4.86zm10.397 7.14V47.326h1.671V60.92h-1.671zm10.613-1.219q-.937.797-1.797 1.125-.86.313-1.844.313-1.609 0-2.484-.781-.875-.797-.875-2.032 0-.734.328-1.328.328-.594.86-.953.53-.36 1.203-.547.5-.14 1.484-.25 2.031-.25 2.984-.578v-.437q0-1.016-.468-1.438-.64-.562-1.907-.562-1.171 0-1.734.406-.562.406-.828 1.469l-1.64-.235q.234-1.047.734-1.687.515-.641 1.468-.985.97-.36 2.25-.36 1.266 0 2.047.298.782.297 1.157.75t.515 1.14q.094.422.094 1.532v2.234q0 2.328.094 2.953.11.61.437 1.172h-1.75q-.265-.516-.328-1.219zm-.14-3.718q-.907.359-2.735.625-1.031.14-1.453.328-.422.187-.656.547-.235.359-.235.796 0 .672.5 1.125.516.438 1.485.438.968 0 1.718-.422.75-.437 1.11-1.156.265-.578.265-1.672v-.61zm4 8.734l-.172-1.563q.547.141.953.141.547 0 .875-.187.344-.188.563-.516.156-.25.5-1.25.047-.14.156-.406l-3.734-9.875h1.797l2.047 5.718q.406 1.079.718 2.282.282-1.157.688-2.25l2.094-5.75h1.671l-3.75 10.03q-.593 1.626-.937 2.235-.438.828-1.016 1.203-.578.391-1.375.391-.484 0-1.078-.203zm16.156-6.969l1.72.219q-.407 1.5-1.516 2.344-1.094.828-2.813.828-2.156 0-3.422-1.328-1.265-1.328-1.265-3.735 0-2.484 1.265-3.86 1.281-1.374 3.328-1.374 1.985 0 3.235 1.344 1.25 1.343 1.25 3.797 0 .14-.016.437h-7.344q.094 1.625.922 2.484.828.86 2.063.86.906 0 1.547-.469.656-.484 1.046-1.547zm-5.484-2.703h5.5q-.11-1.234-.625-1.86-.797-.968-2.078-.968-1.14 0-1.938.781-.78.766-.859 2.047zm9.095 5.875v-9.86h1.5v1.5q.578-1.046 1.062-1.374.484-.344 1.078-.344.844 0 1.719.547l-.578 1.547q-.61-.36-1.235-.36-.546 0-.984.328-.422.329-.61.907-.28.89-.28 1.953v5.156h-1.672zm11.114.234l.813-3.953h-1.578v-1.39h1.86l.687-3.36h-2.547v-1.39h2.812l.813-3.97h1.39l-.812 3.97h2.922l.812-3.97h1.406l-.812 3.97h1.61v1.39h-1.891l-.688 3.36h2.578v1.39h-2.859l-.813 3.953h-1.39l.797-3.953h-2.907l-.812 3.953h-1.39zm2.485-5.343h2.906l.703-3.36h-2.922l-.687 3.36zm7.735 1.515l1.672-.218q.28 1.421.968 2.046.704.625 1.688.625 1.187 0 2-.812.812-.828.812-2.031 0-1.141-.765-1.891-.75-.75-1.906-.75-.47 0-1.172.188l.187-1.47q.156.016.266.016 1.062 0 1.906-.546.86-.563.86-1.72 0-.921-.626-1.515-.609-.61-1.593-.61-.97 0-1.625.61-.641.61-.828 1.844l-1.672-.297q.297-1.687 1.375-2.61 1.093-.921 2.718-.921 1.11 0 2.047.484.938.469 1.422 1.297.5.828.5 1.75 0 .89-.469 1.61-.468.718-1.406 1.156 1.219.265 1.875 1.156.672.875.672 2.187 0 1.782-1.297 3.016t-3.281 1.234q-1.797 0-2.984-1.062-1.172-1.063-1.344-2.766zm16.657 3.594h-1.672V50.28q-.594.578-1.578 1.156-.985.562-1.766.859V50.67q1.406-.656 2.453-1.594 1.047-.937 1.485-1.812h1.078V60.92zm9.746-11.687v-1.907h1.672v1.907h-1.672zm0 11.687v-9.86h1.672v9.86h-1.672zm4.13 0v-9.86h1.5v1.407q1.093-1.625 3.14-1.625.89 0 1.64.328.75.313 1.11.844.375.515.531 1.219.094.468.094 1.625v6.062h-1.672v-6q0-1.016-.203-1.516-.187-.515-.687-.812-.5-.297-1.172-.297-1.063 0-1.844.672-.766.672-.766 2.578v5.375h-1.672z"/><path d="M510.496 92v24"/><path stroke="red" stroke-width="4" stroke-linejoin="round" stroke-linecap="butt" d="M510.496 92v24"/><path d="M371.496 116v24"/><path stroke="#00f" stroke-width="4" stroke-linejoin="round" stroke-linecap="butt" d="M371.496 116v24"/><path d="M102.496 148h168v72h-168z"/><path fill="#000" d="M112.965 174.92v-13.594h5.125q1.36 0 2.078.125 1 .172 1.672.64.672.47 1.078 1.313.422.844.422 1.844 0 1.734-1.11 2.938-1.093 1.203-3.984 1.203h-3.484v5.531h-1.797zm1.797-7.14h3.515q1.75 0 2.47-.641.734-.657.734-1.828 0-.86-.438-1.47-.422-.609-1.125-.796-.453-.125-1.672-.125h-3.484v4.86zm10.397 7.14v-13.594h1.671v13.594h-1.671zm10.613-1.219q-.937.797-1.797 1.125-.86.313-1.843.313-1.61 0-2.485-.782-.875-.796-.875-2.03 0-.735.328-1.329t.86-.953q.53-.36 1.203-.547.5-.14 1.484-.25 2.031-.25 2.985-.578v-.438q0-1.015-.47-1.437-.64-.563-1.905-.563-1.172 0-1.735.407-.562.406-.828 1.468l-1.64-.234q.234-1.047.734-1.687.515-.641 1.469-.985.968-.36 2.25-.36 1.265 0 2.046.298.782.297 1.157.75t.515 1.14q.094.422.094 1.532v2.234q0 2.328.094 2.953.11.61.437 1.172h-1.75q-.265-.516-.328-1.219zm-.14-3.719q-.907.36-2.735.625-1.031.141-1.453.329-.422.187-.656.546-.235.36-.235.797 0 .672.5 1.125.516.438 1.485.438.969 0 1.719-.422.75-.438 1.109-1.156.266-.578.266-1.672v-.61zm4 8.735l-.172-1.563q.547.141.953.141.547 0 .875-.188.344-.187.563-.515.156-.25.5-1.25.047-.14.156-.406l-3.734-9.875h1.797l2.047 5.718q.406 1.078.718 2.282.282-1.157.688-2.25l2.094-5.75h1.671l-3.75 10.03q-.593 1.626-.937 2.235-.438.828-1.016 1.203-.578.391-1.375.391-.484 0-1.078-.203zm16.156-6.969l1.72.219q-.407 1.5-1.516 2.344-1.094.828-2.813.828-2.156 0-3.422-1.328-1.265-1.329-1.265-3.735 0-2.484 1.265-3.86 1.281-1.374 3.328-1.374 1.985 0 3.235 1.344 1.25 1.343 1.25 3.796 0 .141-.016.438h-7.344q.094 1.625.922 2.484.828.86 2.063.86.906 0 1.547-.469.656-.484 1.046-1.547zm-5.484-2.703h5.5q-.11-1.234-.625-1.86-.797-.968-2.078-.968-1.14 0-1.938.781-.78.766-.859 2.047zm9.095 5.875v-9.86h1.5v1.5q.578-1.046 1.062-1.374.484-.344 1.078-.344.844 0 1.719.547l-.578 1.547q-.61-.36-1.235-.36-.546 0-.984.328-.422.328-.61.907-.28.89-.28 1.953v5.156h-1.672zm11.114.234l.813-3.953h-1.578v-1.39h1.859l.688-3.36h-2.547v-1.39h2.812l.813-3.97h1.39l-.812 3.97h2.922l.812-3.97h1.406l-.812 3.97h1.61v1.39h-1.891l-.688 3.36h2.578v1.39h-2.86l-.812 3.953h-1.39l.797-3.953h-2.907l-.812 3.953h-1.39zm2.485-5.343h2.906l.703-3.36h-2.922l-.687 3.36zm14.016 5.109h-1.672v-10.64q-.594.577-1.578 1.156-.984.562-1.766.859v-1.625q1.407-.656 2.454-1.594 1.046-.937 1.484-1.812h1.078v13.656zm4.079-3.563l1.765-.156q.188 1.281.891 1.938.719.64 1.719.64 1.203 0 2.031-.906.844-.906.844-2.422 0-1.422-.813-2.25-.797-.828-2.093-.828-.797 0-1.454.375-.64.36-1.015.953l-1.578-.203 1.328-7h6.765v1.61h-5.437l-.734 3.64q1.234-.844 2.578-.844 1.781 0 3 1.235 1.234 1.234 1.234 3.172 0 1.843-1.078 3.187-1.313 1.656-3.578 1.656-1.86 0-3.031-1.03-1.172-1.048-1.344-2.767zm15.403-1.359q0-2.734 1.53-4.062 1.267-1.094 3.095-1.094 2.03 0 3.312 1.344 1.297 1.328 1.297 3.671 0 1.907-.578 3-.563 1.079-1.656 1.688-1.078.594-2.375.594-2.063 0-3.344-1.328-1.281-1.329-1.281-3.813zm1.718 0q0 1.89.829 2.828.828.938 2.078.938t2.062-.938q.828-.953.828-2.89 0-1.829-.828-2.766-.828-.938-2.062-.938-1.25 0-2.078.938-.829.937-.829 2.828zm15.735 4.922v-1.453q-1.14 1.672-3.125 1.672-.859 0-1.625-.328-.75-.344-1.125-.844-.359-.5-.515-1.235-.094-.5-.094-1.562v-6.11h1.672v5.47q0 1.312.094 1.765.156.656.672 1.031.515.375 1.265.375.75 0 1.406-.375.657-.39.922-1.047.282-.672.282-1.937v-5.281h1.671v9.859h-1.5zm7.58-1.5l.234 1.484q-.703.141-1.266.141-.906 0-1.406-.281-.5-.297-.703-.75-.203-.469-.203-1.985v-5.656h-1.235v-1.312h1.235v-2.438l1.656-1v3.438h1.687v1.312h-1.687v5.75q0 .719.078.922.094.203.297.328.203.125.578.125.266 0 .734-.078zm-118.564 23.5v-13.594h5.125q1.36 0 2.078.125 1 .172 1.672.64.672.47 1.078 1.313.422.844.422 1.844 0 1.734-1.11 2.938-1.093 1.203-3.984 1.203h-3.484v5.531h-1.797zm1.797-7.14h3.515q1.75 0 2.47-.641.734-.657.734-1.828 0-.86-.438-1.47-.422-.609-1.125-.796-.453-.125-1.672-.125h-3.484v4.86zm10.397 7.14v-13.594h1.671v13.594h-1.671zm10.613-1.219q-.937.797-1.797 1.125-.86.313-1.843.313-1.61 0-2.485-.782-.875-.796-.875-2.03 0-.735.328-1.329t.86-.953q.53-.36 1.203-.547.5-.14 1.484-.25 2.031-.25 2.985-.578v-.438q0-1.015-.47-1.437-.64-.563-1.905-.563-1.172 0-1.735.407-.562.406-.828 1.468l-1.64-.234q.234-1.047.734-1.687.515-.641 1.469-.985.968-.36 2.25-.36 1.265 0 2.046.298.782.297 1.157.75t.515 1.14q.094.422.094 1.532v2.234q0 2.328.094 2.953.11.61.437 1.172h-1.75q-.265-.516-.328-1.219zm-.14-3.719q-.907.36-2.735.625-1.031.141-1.453.329-.422.187-.656.546-.235.36-.235.797 0 .672.5 1.125.516.438 1.485.438.969 0 1.719-.422.75-.438 1.109-1.156.266-.578.266-1.672v-.61zm4 8.735l-.172-1.563q.547.141.953.141.547 0 .875-.188.344-.187.563-.515.156-.25.5-1.25.047-.14.156-.406l-3.734-9.875h1.797l2.047 5.718q.406 1.078.718 2.282.282-1.157.688-2.25l2.094-5.75h1.671l-3.75 10.03q-.593 1.626-.937 2.235-.438.828-1.016 1.203-.578.391-1.375.391-.484 0-1.078-.203zm16.156-6.969l1.72.219q-.407 1.5-1.516 2.344-1.094.828-2.813.828-2.156 0-3.422-1.328-1.265-1.329-1.265-3.735 0-2.484 1.265-3.86 1.281-1.374 3.328-1.374 1.985 0 3.235 1.344 1.25 1.343 1.25 3.796 0 .141-.016.438h-7.344q.094 1.625.922 2.484.828.86 2.063.86.906 0 1.547-.469.656-.484 1.046-1.547zm-5.484-2.703h5.5q-.11-1.234-.625-1.86-.797-.968-2.078-.968-1.14 0-1.938.781-.78.766-.859 2.047zm9.095 5.875v-9.86h1.5v1.5q.578-1.046 1.062-1.374.484-.344 1.078-.344.844 0 1.719.547l-.578 1.547q-.61-.36-1.235-.36-.546 0-.984.328-.422.328-.61.907-.28.89-.28 1.953v5.156h-1.672zm11.114.234l.813-3.953h-1.578v-1.39h1.859l.688-3.36h-2.547v-1.39h2.812l.813-3.97h1.39l-.812 3.97h2.922l.812-3.97h1.406l-.812 3.97h1.61v1.39h-1.891l-.688 3.36h2.578v1.39h-2.86l-.812 3.953h-1.39l.797-3.953h-2.907l-.812 3.953h-1.39zm2.485-5.343h2.906l.703-3.36h-2.922l-.687 3.36zm7.735 1.515l1.672-.219q.28 1.422.968 2.047.704.625 1.688.625 1.187 0 2-.812.812-.828.812-2.031 0-1.141-.765-1.891-.75-.75-1.906-.75-.47 0-1.172.187l.187-1.468q.156.015.266.015 1.062 0 1.906-.547.86-.562.86-1.718 0-.922-.626-1.516-.609-.61-1.593-.61-.97 0-1.625.61-.641.61-.828 1.844l-1.672-.297q.297-1.688 1.375-2.61 1.093-.921 2.718-.921 1.11 0 2.047.484.938.469 1.422 1.297.5.828.5 1.75 0 .89-.469 1.61-.468.718-1.406 1.156 1.219.265 1.875 1.156.672.875.672 2.187 0 1.782-1.297 3.016t-3.281 1.234q-1.797 0-2.984-1.062-1.172-1.063-1.344-2.766zm10.625.453l1.594-.156q.203 1.14.781 1.656.579.5 1.485.5.765 0 1.344-.343.578-.36.953-.954.375-.593.625-1.593t.25-2.032q0-.109-.016-.343-.5.797-1.375 1.297-.86.5-1.875.5-1.687 0-2.86-1.22-1.171-1.234-1.171-3.234 0-2.078 1.219-3.328 1.234-1.265 3.062-1.265 1.328 0 2.422.718 1.11.704 1.672 2.032.578 1.328.578 3.828 0 2.61-.578 4.156-.563 1.547-1.688 2.36-1.109.796-2.609.796-1.594 0-2.61-.89-1-.89-1.203-2.485zm6.829-6q0-1.437-.766-2.28-.766-.86-1.844-.86-1.11 0-1.937.922-.828.906-.828 2.343 0 1.313.78 2.125.798.797 1.938.797 1.172 0 1.907-.797.75-.812.75-2.25zm8.95-2.547v-1.906h1.671v1.906h-1.672zm0 11.688v-9.86h1.671v9.86h-1.672zm4.128 0v-9.86h1.5v1.407q1.094-1.625 3.141-1.625.89 0 1.64.328.75.312 1.11.844.375.515.531 1.218.094.47.094 1.625v6.063h-1.672v-6q0-1.016-.203-1.516-.187-.515-.687-.812-.5-.297-1.172-.297-1.063 0-1.844.672-.766.672-.766 2.578v5.375h-1.672z"/><path d="M166.496 116v24"/><path stroke="#00f" stroke-width="4" stroke-linejoin="round" stroke-linecap="butt" d="M166.496 116v24"/><path fill="#000" d="M30.324 151.592v-1.61h5.766v5.047q-1.328 1.063-2.75 1.594-1.406.531-2.89.531-2 0-3.641-.859-1.625-.86-2.469-2.484-.828-1.625-.828-3.625 0-1.985.828-3.704.828-1.718 2.39-2.546 1.563-.844 3.594-.844 1.47 0 2.657.484 1.203.469 1.875 1.328.671.844 1.03 2.22l-1.624.437q-.313-1.032-.766-1.625-.453-.594-1.297-.954-.843-.359-1.875-.359-1.234 0-2.14.375-.89.375-1.453 1-.547.61-.844 1.344-.531 1.25-.531 2.734 0 1.813.625 3.047.64 1.219 1.828 1.813 1.203.593 2.547.593 1.171 0 2.28-.453 1.11-.453 1.688-.953v-2.531h-4zm14.371 4.11q-.937.796-1.797 1.124-.86.313-1.843.313-1.61 0-2.485-.782-.875-.796-.875-2.03 0-.735.328-1.329t.86-.953q.53-.36 1.203-.547.5-.14 1.484-.25 2.031-.25 2.985-.578v-.438q0-1.015-.47-1.437-.64-.563-1.905-.563-1.172 0-1.735.407-.562.406-.828 1.468l-1.64-.234q.234-1.047.734-1.687.515-.641 1.469-.985.968-.36 2.25-.36 1.265 0 2.046.298.782.297 1.157.75t.515 1.14q.094.422.094 1.532v2.234q0 2.328.094 2.953.11.61.437 1.172h-1.75q-.265-.516-.328-1.219zm-.14-3.72q-.907.36-2.735.625-1.031.141-1.453.329-.422.187-.656.546-.235.36-.235.797 0 .672.5 1.125.516.438 1.485.438.969 0 1.719-.422.75-.438 1.109-1.156.266-.578.266-1.672v-.61zm4.078 4.938v-9.86h1.5v1.391q.454-.719 1.22-1.156.78-.453 1.765-.453 1.094 0 1.797.453.703.453.984 1.281 1.172-1.734 3.047-1.734 1.469 0 2.25.812.797.813.797 2.5v6.766H60.32v-6.203q0-1-.156-1.438-.157-.453-.594-.718-.422-.266-1-.266-1.031 0-1.719.687-.687.688-.687 2.22v5.718h-1.672v-6.406q0-1.11-.406-1.657-.407-.562-1.344-.562-.703 0-1.313.375-.593.36-.86 1.078-.265.719-.265 2.063v5.109h-1.672zm22.291-3.172l1.719.219q-.406 1.5-1.516 2.344-1.093.828-2.812.828-2.156 0-3.422-1.328-1.266-1.329-1.266-3.735 0-2.484 1.266-3.86 1.281-1.374 3.328-1.374 1.984 0 3.234 1.344 1.25 1.343 1.25 3.796 0 .141-.015.438h-7.344q.094 1.625.922 2.484.828.86 2.062.86.907 0 1.547-.469.657-.484 1.047-1.547zm-5.484-2.703h5.5q-.11-1.234-.625-1.86-.797-.968-2.078-.968-1.14 0-1.938.781-.781.766-.86 2.047zM25.293 178.92h-1.547v-13.594h1.656v4.844q1.063-1.328 2.704-1.328.906 0 1.718.375.813.36 1.328 1.031.532.656.829 1.594.296.937.296 2 0 2.531-1.25 3.922-1.25 1.375-3 1.375t-2.734-1.453v1.234zm-.016-5q0 1.766.47 2.562.796 1.282 2.14 1.282 1.094 0 1.89-.938.797-.953.797-2.844 0-1.921-.765-2.843-.766-.922-1.844-.922-1.094 0-1.89.953-.798.953-.798 2.75zm15.595 1.828l1.719.219q-.407 1.5-1.516 2.344-1.094.828-2.812.828-2.157 0-3.422-1.328-1.266-1.329-1.266-3.735 0-2.484 1.266-3.86 1.281-1.374 3.328-1.374 1.984 0 3.234 1.344 1.25 1.343 1.25 3.796 0 .141-.015.438h-7.344q.094 1.625.922 2.484.828.86 2.062.86.906 0 1.547-.469.656-.484 1.047-1.547zm-5.484-2.703h5.5q-.11-1.234-.625-1.86-.797-.968-2.079-.968-1.14 0-1.937.781-.781.766-.86 2.047zm8.813 6.687l1.61.25q.109.75.577 1.094.61.453 1.688.453 1.172 0 1.797-.468.625-.454.859-1.282.125-.515.11-2.156-1.094 1.297-2.72 1.297-2.03 0-3.156-1.469-1.109-1.469-1.109-3.515 0-1.407.516-2.594.515-1.203 1.484-1.844.969-.656 2.266-.656 1.75 0 2.875 1.406v-1.187h1.547v8.515q0 2.313-.47 3.266-.468.969-1.484 1.515-1.015.563-2.5.563-1.765 0-2.859-.797-1.078-.797-1.031-2.39zm1.375-5.921q0 1.953.765 2.843.782.891 1.938.891 1.14 0 1.922-.89.781-.891.781-2.782 0-1.812-.812-2.719-.797-.922-1.922-.922-1.11 0-1.891.907-.781.89-.781 2.672zm9.313-6.579v-1.906h1.672v1.906h-1.672zm0 11.688v-9.86h1.672v9.86h-1.672zm4.13 0v-9.86h1.5v1.407q1.093-1.625 3.14-1.625.89 0 1.64.328.75.312 1.11.844.375.515.531 1.218.094.47.094 1.625v6.063h-1.672v-6q0-1.016-.203-1.516-.188-.515-.688-.812-.5-.297-1.172-.297-1.062 0-1.843.672-.766.672-.766 2.578v5.375h-1.672z"/><path d="M41.496 116.667l584.032-2.016"/><path stroke="#000" stroke-width="4" stroke-linejoin="round" stroke-linecap="butt" d="M56.656 116.614l544.872-1.88"/><path fill="#000" stroke="#000" stroke-width="4" stroke-linecap="butt" d="M56.679 123.194l-13.16.046-.045-13.16 13.16-.046.045 13.16z"/><path fill="#000" stroke="#000" stroke-width="4" stroke-linecap="butt" d="M603.054 120.589l18.13-6.67-18.175-6.544z" fill-rule="evenodd"/><path d="M206.496 92v24"/><path stroke="red" stroke-width="4" stroke-linejoin="round" stroke-linecap="butt" d="M206.496 92v24"/><path d="M138.496 12h168v72h-168z"/><path fill="#000" d="M148.965 38.92V25.326h5.125q1.36 0 2.078.125 1 .172 1.672.64.672.47 1.078 1.313.422.844.422 1.844 0 1.735-1.11 2.938-1.093 1.203-3.984 1.203h-3.484v5.531h-1.797zm1.797-7.14h3.515q1.75 0 2.47-.641.734-.656.734-1.828 0-.86-.438-1.47-.422-.608-1.125-.796-.453-.125-1.672-.125h-3.484v4.86zm10.397 7.14V25.326h1.671V38.92h-1.671zm10.613-1.219q-.937.797-1.797 1.125-.86.313-1.843.313-1.61 0-2.485-.781-.875-.797-.875-2.032 0-.734.328-1.328.328-.594.86-.953.53-.36 1.203-.547.5-.14 1.484-.25 2.031-.25 2.985-.578v-.437q0-1.016-.47-1.438-.64-.562-1.905-.562-1.172 0-1.735.406-.562.406-.828 1.469l-1.64-.235q.234-1.047.734-1.687.515-.641 1.469-.985.968-.36 2.25-.36 1.265 0 2.046.298.782.297 1.157.75t.515 1.14q.094.422.094 1.532v2.234q0 2.328.094 2.953.11.61.437 1.172h-1.75q-.265-.516-.328-1.219zm-.14-3.718q-.907.359-2.735.625-1.031.14-1.453.328-.422.187-.656.547-.235.359-.235.796 0 .672.5 1.125.516.438 1.485.438.969 0 1.719-.422.75-.437 1.109-1.156.266-.578.266-1.672v-.61zm4 8.734l-.172-1.563q.547.141.953.141.547 0 .875-.187.344-.188.563-.516.156-.25.5-1.25.047-.14.156-.406l-3.734-9.875h1.797l2.047 5.718q.406 1.079.718 2.282.282-1.157.688-2.25l2.094-5.75h1.671l-3.75 10.03q-.593 1.626-.937 2.235-.438.828-1.016 1.203-.578.391-1.375.391-.484 0-1.078-.203zm16.156-6.969l1.72.219q-.407 1.5-1.516 2.344-1.094.828-2.813.828-2.156 0-3.422-1.328-1.265-1.328-1.265-3.735 0-2.484 1.265-3.86 1.281-1.374 3.328-1.374 1.985 0 3.235 1.344 1.25 1.343 1.25 3.797 0 .14-.016.437h-7.344q.094 1.625.922 2.484.828.86 2.063.86.906 0 1.547-.469.656-.484 1.046-1.547zm-5.484-2.703h5.5q-.11-1.234-.625-1.86-.797-.968-2.078-.968-1.14 0-1.938.781-.78.766-.859 2.047zm9.095 5.875v-9.86h1.5v1.5q.578-1.046 1.062-1.374.484-.344 1.078-.344.844 0 1.719.547l-.578 1.547q-.61-.36-1.235-.36-.546 0-.984.328-.422.329-.61.907-.28.89-.28 1.953v5.156h-1.672zm11.114.234l.813-3.953h-1.578v-1.39h1.859l.688-3.36h-2.547v-1.39h2.812l.813-3.97h1.39l-.812 3.97h2.922l.812-3.97h1.406l-.812 3.97h1.61v1.39h-1.891l-.688 3.36h2.578v1.39h-2.86l-.812 3.953h-1.39l.797-3.953h-2.907l-.812 3.953h-1.39zm2.485-5.343h2.906l.703-3.36h-2.922l-.687 3.36zm7.735 1.515l1.672-.218q.28 1.421.968 2.046.704.625 1.688.625 1.187 0 2-.812.812-.828.812-2.031 0-1.141-.765-1.891-.75-.75-1.906-.75-.47 0-1.172.188l.187-1.47q.156.016.266.016 1.062 0 1.906-.546.86-.563.86-1.72 0-.921-.626-1.515-.609-.61-1.593-.61-.97 0-1.625.61-.641.61-.828 1.844l-1.672-.297q.297-1.687 1.375-2.61 1.093-.921 2.718-.921 1.11 0 2.047.484.938.469 1.422 1.297.5.828.5 1.75 0 .89-.469 1.61-.468.718-1.406 1.156 1.219.265 1.875 1.156.672.875.672 2.187 0 1.782-1.297 3.016t-3.281 1.234q-1.797 0-2.984-1.062-1.172-1.063-1.344-2.766zm16.657 3.594h-1.672V28.28q-.594.578-1.578 1.156-.985.562-1.766.859V28.67q1.406-.656 2.453-1.594 1.047-.937 1.485-1.812h1.078V38.92zm9.106-4.922q0-2.734 1.53-4.062 1.267-1.094 3.095-1.094 2.03 0 3.312 1.344 1.297 1.328 1.297 3.672 0 1.906-.578 3-.563 1.078-1.656 1.687-1.078.594-2.375.594-2.063 0-3.344-1.328-1.281-1.328-1.281-3.813zm1.718 0q0 1.89.829 2.828.828.938 2.078.938t2.062-.938q.828-.953.828-2.89 0-1.828-.828-2.766-.828-.937-2.062-.937-1.25 0-2.078.937-.829.938-.829 2.828zm15.735 4.922v-1.453q-1.14 1.672-3.125 1.672-.859 0-1.625-.328-.75-.344-1.125-.844-.359-.5-.515-1.234-.094-.5-.094-1.563v-6.11h1.672v5.47q0 1.312.094 1.765.156.656.672 1.031.515.375 1.265.375.75 0 1.406-.375.657-.39.922-1.047.282-.671.282-1.937V29.06h1.671v9.859h-1.5zm7.58-1.5l.234 1.484q-.703.141-1.266.141-.906 0-1.406-.281-.5-.297-.703-.75-.203-.469-.203-1.985v-5.656h-1.235v-1.312h1.235v-2.438l1.656-1v3.438h1.687v1.312h-1.687v5.75q0 .719.078.922.094.203.297.328.203.125.578.125.266 0 .734-.078zm-118.564 23.5V47.326h5.125q1.36 0 2.078.125 1 .172 1.672.64.672.47 1.078 1.313.422.844.422 1.844 0 1.735-1.11 2.938-1.093 1.203-3.984 1.203h-3.484v5.531h-1.797zm1.797-7.14h3.515q1.75 0 2.47-.641.734-.656.734-1.828 0-.86-.438-1.47-.422-.608-1.125-.796-.453-.125-1.672-.125h-3.484v4.86zm10.397 7.14V47.326h1.671V60.92h-1.671zm10.613-1.219q-.937.797-1.797 1.125-.86.313-1.843.313-1.61 0-2.485-.781-.875-.797-.875-2.032 0-.734.328-1.328.328-.594.86-.953.53-.36 1.203-.547.5-.14 1.484-.25 2.031-.25 2.985-.578v-.437q0-1.016-.47-1.438-.64-.562-1.905-.562-1.172 0-1.735.406-.562.406-.828 1.469l-1.64-.235q.234-1.047.734-1.687.515-.641 1.469-.985.968-.36 2.25-.36 1.265 0 2.046.298.782.297 1.157.75t.515 1.14q.094.422.094 1.532v2.234q0 2.328.094 2.953.11.61.437 1.172h-1.75q-.265-.516-.328-1.219zm-.14-3.718q-.907.359-2.735.625-1.031.14-1.453.328-.422.187-.656.547-.235.359-.235.796 0 .672.5 1.125.516.438 1.485.438.969 0 1.719-.422.75-.437 1.109-1.156.266-.578.266-1.672v-.61zm4 8.734l-.172-1.563q.547.141.953.141.547 0 .875-.187.344-.188.563-.516.156-.25.5-1.25.047-.14.156-.406l-3.734-9.875h1.797l2.047 5.718q.406 1.079.718 2.282.282-1.157.688-2.25l2.094-5.75h1.671l-3.75 10.03q-.593 1.626-.937 2.235-.438.828-1.016 1.203-.578.391-1.375.391-.484 0-1.078-.203zm16.156-6.969l1.72.219q-.407 1.5-1.516 2.344-1.094.828-2.813.828-2.156 0-3.422-1.328-1.265-1.328-1.265-3.735 0-2.484 1.265-3.86 1.281-1.374 3.328-1.374 1.985 0 3.235 1.344 1.25 1.343 1.25 3.797 0 .14-.016.437h-7.344q.094 1.625.922 2.484.828.86 2.063.86.906 0 1.547-.469.656-.484 1.046-1.547zm-5.484-2.703h5.5q-.11-1.234-.625-1.86-.797-.968-2.078-.968-1.14 0-1.938.781-.78.766-.859 2.047zm9.095 5.875v-9.86h1.5v1.5q.578-1.046 1.062-1.374.484-.344 1.078-.344.844 0 1.719.547l-.578 1.547q-.61-.36-1.235-.36-.546 0-.984.328-.422.329-.61.907-.28.89-.28 1.953v5.156h-1.672zm11.114.234l.813-3.953h-1.578v-1.39h1.859l.688-3.36h-2.547v-1.39h2.812l.813-3.97h1.39l-.812 3.97h2.922l.812-3.97h1.406l-.812 3.97h1.61v1.39h-1.891l-.688 3.36h2.578v1.39h-2.86l-.812 3.953h-1.39l.797-3.953h-2.907l-.812 3.953h-1.39zm2.485-5.343h2.906l.703-3.36h-2.922l-.687 3.36zm16.5 3.5v1.609h-8.984q-.016-.61.188-1.156.343-.922 1.093-1.813.766-.89 2.188-2.062 2.219-1.813 3-2.875.781-1.063.781-2.016 0-.984-.719-1.672-.703-.687-1.843-.687-1.204 0-1.938.734-.719.719-.719 2l-1.718-.172q.171-1.922 1.328-2.922 1.156-1.015 3.093-1.015 1.954 0 3.094 1.094 1.14 1.078 1.14 2.687 0 .813-.343 1.61-.328.78-1.11 1.656-.765.859-2.562 2.39-1.5 1.266-1.937 1.719-.422.438-.703.89h6.671zm1.61-1.985l1.672-.218q.282 1.421.97 2.046.702.625 1.687.625 1.187 0 2-.812.812-.828.812-2.031 0-1.141-.766-1.891-.75-.75-1.906-.75-.469 0-1.172.188l.188-1.47q.156.016.265.016 1.063 0 1.907-.546.86-.563.86-1.72 0-.921-.626-1.515-.61-.61-1.594-.61-.968 0-1.625.61-.64.61-.828 1.844l-1.672-.297q.297-1.687 1.375-2.61 1.094-.921 2.72-.921 1.108 0 2.046.484.937.469 1.422 1.297.5.828.5 1.75 0 .89-.469 1.61-.469.718-1.406 1.156 1.219.265 1.875 1.156.672.875.672 2.187 0 1.782-1.297 3.016t-3.281 1.234q-1.797 0-2.985-1.062-1.172-1.063-1.344-2.766zm16.028-8.093v-1.907h1.672v1.907h-1.672zm0 11.687v-9.86h1.672v9.86h-1.672zm4.13 0v-9.86h1.5v1.407q1.093-1.625 3.14-1.625.89 0 1.64.328.75.313 1.11.844.375.515.531 1.219.094.468.094 1.625v6.062h-1.672v-6q0-1.016-.203-1.516-.187-.515-.687-.812-.5-.297-1.172-.297-1.063 0-1.844.672-.766.672-.766 2.578v5.375h-1.672z"/><path d="M295.496 148h168v72h-168z"/><path fill="#000" d="M305.965 174.92v-13.594h5.125q1.36 0 2.078.125 1 .172 1.672.64.672.47 1.078 1.313.422.844.422 1.844 0 1.734-1.11 2.938-1.093 1.203-3.984 1.203h-3.484v5.531h-1.797zm1.797-7.14h3.515q1.75 0 2.47-.641.734-.657.734-1.828 0-.86-.438-1.47-.422-.609-1.125-.796-.453-.125-1.672-.125h-3.484v4.86zm10.397 7.14v-13.594h1.671v13.594h-1.671zm10.613-1.219q-.937.797-1.797 1.125-.86.313-1.844.313-1.609 0-2.484-.782-.875-.796-.875-2.03 0-.735.328-1.329t.86-.953q.53-.36 1.203-.547.5-.14 1.484-.25 2.031-.25 2.984-.578v-.438q0-1.015-.468-1.437-.64-.563-1.907-.563-1.171 0-1.734.407-.562.406-.828 1.468l-1.64-.234q.234-1.047.734-1.687.515-.641 1.468-.985.97-.36 2.25-.36 1.266 0 2.047.298.782.297 1.157.75t.515 1.14q.094.422.094 1.532v2.234q0 2.328.094 2.953.11.61.437 1.172h-1.75q-.265-.516-.328-1.219zm-.14-3.719q-.907.36-2.735.625-1.031.141-1.453.329-.422.187-.656.546-.235.36-.235.797 0 .672.5 1.125.516.438 1.485.438.968 0 1.718-.422.75-.438 1.11-1.156.265-.578.265-1.672v-.61zm4 8.735l-.172-1.563q.547.141.953.141.547 0 .875-.188.344-.187.563-.515.156-.25.5-1.25.047-.14.156-.406l-3.734-9.875h1.797l2.047 5.718q.406 1.078.718 2.282.282-1.157.688-2.25l2.094-5.75h1.671l-3.75 10.03q-.593 1.626-.937 2.235-.438.828-1.016 1.203-.578.391-1.375.391-.484 0-1.078-.203zm16.156-6.969l1.72.219q-.407 1.5-1.516 2.344-1.094.828-2.813.828-2.156 0-3.422-1.328-1.265-1.329-1.265-3.735 0-2.484 1.265-3.86 1.281-1.374 3.328-1.374 1.985 0 3.235 1.344 1.25 1.343 1.25 3.796 0 .141-.016.438h-7.344q.094 1.625.922 2.484.828.86 2.063.86.906 0 1.547-.469.656-.484 1.046-1.547zm-5.484-2.703h5.5q-.11-1.234-.625-1.86-.797-.968-2.078-.968-1.14 0-1.938.781-.78.766-.859 2.047zm9.095 5.875v-9.86h1.5v1.5q.578-1.046 1.062-1.374.484-.344 1.078-.344.844 0 1.719.547l-.578 1.547q-.61-.36-1.235-.36-.546 0-.984.328-.422.328-.61.907-.28.89-.28 1.953v5.156h-1.672zm11.114.234l.813-3.953h-1.578v-1.39h1.86l.687-3.36h-2.547v-1.39h2.812l.813-3.97h1.39l-.812 3.97h2.922l.812-3.97h1.406l-.812 3.97h1.61v1.39h-1.891l-.688 3.36h2.578v1.39h-2.86l-.812 3.953h-1.39l.797-3.953h-2.907l-.812 3.953h-1.39zm2.485-5.343h2.906l.703-3.36h-2.922l-.687 3.36zm16.391-5.157l-1.656.125q-.219-.984-.64-1.422-.673-.718-1.657-.718-.813 0-1.406.437-.797.578-1.25 1.688-.453 1.093-.47 3.14.61-.922 1.47-1.359.875-.453 1.828-.453 1.672 0 2.844 1.234 1.171 1.235 1.171 3.172 0 1.281-.546 2.39-.547 1.094-1.516 1.688-.969.578-2.188.578-2.093 0-3.406-1.53-1.312-1.548-1.312-5.063 0-3.954 1.453-5.735 1.265-1.562 3.422-1.562 1.609 0 2.625.906 1.03.89 1.234 2.484zm-6.812 5.86q0 .86.359 1.656.375.781 1.031 1.203.656.406 1.375.406 1.063 0 1.813-.843.765-.86.765-2.329 0-1.406-.75-2.218-.75-.813-1.89-.813-1.125 0-1.922.813-.781.812-.781 2.125zm8.516.843l1.765-.156q.188 1.281.891 1.938.719.64 1.719.64 1.203 0 2.031-.906.844-.906.844-2.422 0-1.422-.813-2.25-.797-.828-2.093-.828-.797 0-1.454.375-.64.36-1.015.953l-1.578-.203 1.328-7h6.765v1.61h-5.437l-.734 3.64q1.234-.844 2.578-.844 1.781 0 3 1.235 1.234 1.234 1.234 3.172 0 1.843-1.078 3.187-1.313 1.656-3.578 1.656-1.86 0-3.031-1.03-1.172-1.048-1.344-2.767zm15.403-1.359q0-2.734 1.53-4.062 1.267-1.094 3.095-1.094 2.03 0 3.312 1.344 1.297 1.328 1.297 3.671 0 1.907-.578 3-.563 1.079-1.656 1.688-1.078.594-2.375.594-2.063 0-3.344-1.328-1.281-1.329-1.281-3.813zm1.718 0q0 1.89.829 2.828.828.938 2.078.938t2.062-.938q.828-.953.828-2.89 0-1.829-.828-2.766-.828-.938-2.062-.938-1.25 0-2.078.938-.829.937-.829 2.828zm15.735 4.922v-1.453q-1.14 1.672-3.125 1.672-.859 0-1.625-.328-.75-.344-1.125-.844-.359-.5-.515-1.235-.094-.5-.094-1.562v-6.11h1.672v5.47q0 1.312.094 1.765.156.656.672 1.031.515.375 1.265.375.75 0 1.406-.375.657-.39.922-1.047.282-.672.282-1.937v-5.281h1.671v9.859h-1.5zm7.58-1.5l.234 1.484q-.703.141-1.266.141-.906 0-1.406-.281-.5-.297-.703-.75-.203-.469-.203-1.985v-5.656h-1.235v-1.312h1.235v-2.438l1.656-1v3.438h1.687v1.312h-1.687v5.75q0 .719.078.922.094.203.297.328.203.125.578.125.266 0 .734-.078zm-118.564 23.5v-13.594h5.125q1.36 0 2.078.125 1 .172 1.672.64.672.47 1.078 1.313.422.844.422 1.844 0 1.734-1.11 2.938-1.093 1.203-3.984 1.203h-3.484v5.531h-1.797zm1.797-7.14h3.515q1.75 0 2.47-.641.734-.657.734-1.828 0-.86-.438-1.47-.422-.609-1.125-.796-.453-.125-1.672-.125h-3.484v4.86zm10.397 7.14v-13.594h1.671v13.594h-1.671zm10.613-1.219q-.937.797-1.797 1.125-.86.313-1.844.313-1.609 0-2.484-.782-.875-.796-.875-2.03 0-.735.328-1.329t.86-.953q.53-.36 1.203-.547.5-.14 1.484-.25 2.031-.25 2.984-.578v-.438q0-1.015-.468-1.437-.64-.563-1.907-.563-1.171 0-1.734.407-.562.406-.828 1.468l-1.64-.234q.234-1.047.734-1.687.515-.641 1.468-.985.97-.36 2.25-.36 1.266 0 2.047.298.782.297 1.157.75t.515 1.14q.094.422.094 1.532v2.234q0 2.328.094 2.953.11.61.437 1.172h-1.75q-.265-.516-.328-1.219zm-.14-3.719q-.907.36-2.735.625-1.031.141-1.453.329-.422.187-.656.546-.235.36-.235.797 0 .672.5 1.125.516.438 1.485.438.968 0 1.718-.422.75-.438 1.11-1.156.265-.578.265-1.672v-.61zm4 8.735l-.172-1.563q.547.141.953.141.547 0 .875-.188.344-.187.563-.515.156-.25.5-1.25.047-.14.156-.406l-3.734-9.875h1.797l2.047 5.718q.406 1.078.718 2.282.282-1.157.688-2.25l2.094-5.75h1.671l-3.75 10.03q-.593 1.626-.937 2.235-.438.828-1.016 1.203-.578.391-1.375.391-.484 0-1.078-.203zm16.156-6.969l1.72.219q-.407 1.5-1.516 2.344-1.094.828-2.813.828-2.156 0-3.422-1.328-1.265-1.329-1.265-3.735 0-2.484 1.265-3.86 1.281-1.374 3.328-1.374 1.985 0 3.235 1.344 1.25 1.343 1.25 3.796 0 .141-.016.438h-7.344q.094 1.625.922 2.484.828.86 2.063.86.906 0 1.547-.469.656-.484 1.046-1.547zm-5.484-2.703h5.5q-.11-1.234-.625-1.86-.797-.968-2.078-.968-1.14 0-1.938.781-.78.766-.859 2.047zm9.095 5.875v-9.86h1.5v1.5q.578-1.046 1.062-1.374.484-.344 1.078-.344.844 0 1.719.547l-.578 1.547q-.61-.36-1.235-.36-.546 0-.984.328-.422.328-.61.907-.28.89-.28 1.953v5.156h-1.672zm11.114.234l.813-3.953h-1.578v-1.39h1.86l.687-3.36h-2.547v-1.39h2.812l.813-3.97h1.39l-.812 3.97h2.922l.812-3.97h1.406l-.812 3.97h1.61v1.39h-1.891l-.688 3.36h2.578v1.39h-2.86l-.812 3.953h-1.39l.797-3.953h-2.907l-.812 3.953h-1.39zm2.485-5.343h2.906l.703-3.36h-2.922l-.687 3.36zm16.5 3.5v1.609h-8.984q-.016-.61.188-1.156.343-.922 1.093-1.813.766-.89 2.188-2.062 2.219-1.813 3-2.875.781-1.063.781-2.016 0-.984-.719-1.672-.703-.687-1.843-.687-1.204 0-1.938.734-.719.719-.719 2l-1.718-.172q.171-1.922 1.328-2.922 1.156-1.015 3.093-1.015 1.954 0 3.094 1.093 1.14 1.079 1.14 2.688 0 .812-.343 1.61-.328.78-1.11 1.656-.765.859-2.562 2.39-1.5 1.266-1.937 1.719-.422.437-.703.89h6.671zm10.376 0v1.609h-8.984q-.016-.61.187-1.156.344-.922 1.094-1.813.766-.89 2.187-2.062 2.22-1.813 3-2.875.782-1.063.782-2.016 0-.984-.719-1.672-.703-.687-1.844-.687-1.203 0-1.937.734-.719.719-.719 2l-1.719-.172q.172-1.922 1.328-2.922 1.157-1.015 3.094-1.015 1.953 0 3.094 1.093 1.14 1.079 1.14 2.688 0 .812-.343 1.61-.328.78-1.11 1.656-.765.859-2.562 2.39-1.5 1.266-1.938 1.719-.422.437-.703.89h6.672zm7.262-10.079v-1.906h1.672v1.906h-1.672zm0 11.688v-9.86h1.672v9.86h-1.672zm4.13 0v-9.86h1.5v1.407q1.093-1.625 3.14-1.625.89 0 1.64.328.75.312 1.11.844.375.515.531 1.218.094.47.094 1.625v6.063h-1.672v-6q0-1.016-.203-1.516-.187-.515-.687-.812-.5-.297-1.172-.297-1.063 0-1.844.672-.766.672-.766 2.578v5.375h-1.672z"/><path d="M440.496 12h168v72h-168z"/><path fill="#000" d="M450.965 38.92V25.326h5.125q1.36 0 2.078.125 1 .172 1.672.64.672.47 1.078 1.313.422.844.422 1.844 0 1.735-1.11 2.938-1.093 1.203-3.984 1.203h-3.484v5.531h-1.797zm1.797-7.14h3.515q1.75 0 2.47-.641.734-.656.734-1.828 0-.86-.438-1.47-.422-.608-1.125-.796-.453-.125-1.672-.125h-3.484v4.86zm10.397 7.14V25.326h1.671V38.92h-1.671zm10.613-1.219q-.937.797-1.797 1.125-.86.313-1.844.313-1.609 0-2.484-.781-.875-.797-.875-2.032 0-.734.328-1.328.328-.594.86-.953.53-.36 1.203-.547.5-.14 1.484-.25 2.031-.25 2.984-.578v-.437q0-1.016-.468-1.438-.64-.562-1.907-.562-1.171 0-1.734.406-.562.406-.828 1.469l-1.64-.235q.234-1.047.734-1.687.515-.641 1.468-.985.97-.36 2.25-.36 1.266 0 2.047.298.782.297 1.157.75t.515 1.14q.094.422.094 1.532v2.234q0 2.328.094 2.953.11.61.437 1.172h-1.75q-.265-.516-.328-1.219zm-.14-3.718q-.907.359-2.735.625-1.031.14-1.453.328-.422.187-.656.547-.235.359-.235.796 0 .672.5 1.125.516.438 1.485.438.968 0 1.718-.422.75-.437 1.11-1.156.265-.578.265-1.672v-.61zm4 8.734l-.172-1.563q.547.141.953.141.547 0 .875-.187.344-.188.563-.516.156-.25.5-1.25.047-.14.156-.406l-3.734-9.875h1.797l2.047 5.718q.406 1.079.718 2.282.282-1.157.688-2.25l2.094-5.75h1.671l-3.75 10.03q-.593 1.626-.937 2.235-.438.828-1.016 1.203-.578.391-1.375.391-.484 0-1.078-.203zm16.156-6.969l1.72.219q-.407 1.5-1.516 2.344-1.094.828-2.813.828-2.156 0-3.422-1.328-1.265-1.328-1.265-3.735 0-2.484 1.265-3.86 1.281-1.374 3.328-1.374 1.985 0 3.235 1.344 1.25 1.343 1.25 3.797 0 .14-.016.437h-7.344q.094 1.625.922 2.484.828.86 2.063.86.906 0 1.547-.469.656-.484 1.046-1.547zm-5.484-2.703h5.5q-.11-1.234-.625-1.86-.797-.968-2.078-.968-1.14 0-1.938.781-.78.766-.859 2.047zm9.095 5.875v-9.86h1.5v1.5q.578-1.046 1.062-1.374.484-.344 1.078-.344.844 0 1.719.547l-.578 1.547q-.61-.36-1.235-.36-.546 0-.984.328-.422.329-.61.907-.28.89-.28 1.953v5.156h-1.672zm11.114.234l.813-3.953h-1.578v-1.39h1.86l.687-3.36h-2.547v-1.39h2.812l.813-3.97h1.39l-.812 3.97h2.922l.812-3.97h1.406l-.812 3.97h1.61v1.39h-1.891l-.688 3.36h2.578v1.39h-2.859l-.813 3.953h-1.39l.797-3.953h-2.907l-.812 3.953h-1.39zm2.485-5.343h2.906l.703-3.36h-2.922l-.687 3.36zm14.016 5.109h-1.672V28.28q-.594.578-1.578 1.156-.984.562-1.766.859V28.67q1.407-.656 2.454-1.594 1.046-.937 1.484-1.812h1.078V38.92zm4.344-3.14l1.594-.157q.203 1.14.781 1.656.579.5 1.485.5.765 0 1.344-.343.578-.36.953-.953.375-.594.625-1.594t.25-2.031q0-.11-.016-.344-.5.797-1.375 1.297-.86.5-1.875.5-1.687 0-2.86-1.22-1.171-1.233-1.171-3.233 0-2.079 1.219-3.329 1.234-1.265 3.062-1.265 1.328 0 2.422.719 1.11.703 1.672 2.03.578 1.329.578 3.829 0 2.61-.578 4.156-.563 1.547-1.688 2.36-1.109.796-2.609.796-1.594 0-2.61-.89-1-.89-1.203-2.485zm6.829-6q0-1.438-.766-2.282-.766-.86-1.844-.86-1.11 0-1.937.923-.828.906-.828 2.343 0 1.313.78 2.125.798.797 1.938.797 1.172 0 1.907-.797.75-.812.75-2.25zm8.309 4.218q0-2.734 1.53-4.062 1.267-1.094 3.095-1.094 2.03 0 3.312 1.344 1.297 1.328 1.297 3.672 0 1.906-.578 3-.563 1.078-1.656 1.687-1.078.594-2.375.594-2.063 0-3.344-1.328-1.281-1.328-1.281-3.813zm1.718 0q0 1.89.829 2.828.828.938 2.078.938t2.062-.938q.828-.953.828-2.89 0-1.828-.828-2.766-.828-.937-2.062-.937-1.25 0-2.078.937-.829.938-.829 2.828zm15.735 4.922v-1.453q-1.14 1.672-3.125 1.672-.859 0-1.625-.328-.75-.344-1.125-.844-.359-.5-.515-1.234-.094-.5-.094-1.563v-6.11h1.672v5.47q0 1.312.094 1.765.156.656.672 1.031.515.375 1.265.375.75 0 1.406-.375.657-.39.922-1.047.282-.671.282-1.937V29.06h1.671v9.859h-1.5zm7.58-1.5l.234 1.484q-.703.141-1.266.141-.906 0-1.406-.281-.5-.297-.703-.75-.203-.469-.203-1.985v-5.656h-1.235v-1.312h1.235v-2.438l1.656-1v3.438h1.687v1.312h-1.687v5.75q0 .719.078.922.094.203.297.328.203.125.578.125.266 0 .734-.078zm-118.564 23.5V47.326h5.125q1.36 0 2.078.125 1 .172 1.672.64.672.47 1.078 1.313.422.844.422 1.844 0 1.735-1.11 2.938-1.093 1.203-3.984 1.203h-3.484v5.531h-1.797zm1.797-7.14h3.515q1.75 0 2.47-.641.734-.656.734-1.828 0-.86-.438-1.47-.422-.608-1.125-.796-.453-.125-1.672-.125h-3.484v4.86zm10.397 7.14V47.326h1.671V60.92h-1.671zm10.613-1.219q-.937.797-1.797 1.125-.86.313-1.844.313-1.609 0-2.484-.781-.875-.797-.875-2.032 0-.734.328-1.328.328-.594.86-.953.53-.36 1.203-.547.5-.14 1.484-.25 2.031-.25 2.984-.578v-.437q0-1.016-.468-1.438-.64-.562-1.907-.562-1.171 0-1.734.406-.562.406-.828 1.469l-1.64-.235q.234-1.047.734-1.687.515-.641 1.468-.985.97-.36 2.25-.36 1.266 0 2.047.298.782.297 1.157.75t.515 1.14q.094.422.094 1.532v2.234q0 2.328.094 2.953.11.61.437 1.172h-1.75q-.265-.516-.328-1.219zm-.14-3.718q-.907.359-2.735.625-1.031.14-1.453.328-.422.187-.656.547-.235.359-.235.796 0 .672.5 1.125.516.438 1.485.438.968 0 1.718-.422.75-.437 1.11-1.156.265-.578.265-1.672v-.61zm4 8.734l-.172-1.563q.547.141.953.141.547 0 .875-.187.344-.188.563-.516.156-.25.5-1.25.047-.14.156-.406l-3.734-9.875h1.797l2.047 5.718q.406 1.079.718 2.282.282-1.157.688-2.25l2.094-5.75h1.671l-3.75 10.03q-.593 1.626-.937 2.235-.438.828-1.016 1.203-.578.391-1.375.391-.484 0-1.078-.203zm16.156-6.969l1.72.219q-.407 1.5-1.516 2.344-1.094.828-2.813.828-2.156 0-3.422-1.328-1.265-1.328-1.265-3.735 0-2.484 1.265-3.86 1.281-1.374 3.328-1.374 1.985 0 3.235 1.344 1.25 1.343 1.25 3.797 0 .14-.016.437h-7.344q.094 1.625.922 2.484.828.86 2.063.86.906 0 1.547-.469.656-.484 1.046-1.547zm-5.484-2.703h5.5q-.11-1.234-.625-1.86-.797-.968-2.078-.968-1.14 0-1.938.781-.78.766-.859 2.047zm9.095 5.875v-9.86h1.5v1.5q.578-1.046 1.062-1.374.484-.344 1.078-.344.844 0 1.719.547l-.578 1.547q-.61-.36-1.235-.36-.546 0-.984.328-.422.329-.61.907-.28.89-.28 1.953v5.156h-1.672zm11.114.234l.813-3.953h-1.578v-1.39h1.86l.687-3.36h-2.547v-1.39h2.812l.813-3.97h1.39l-.812 3.97h2.922l.812-3.97h1.406l-.812 3.97h1.61v1.39h-1.891l-.688 3.36h2.578v1.39h-2.859l-.813 3.953h-1.39l.797-3.953h-2.907l-.812 3.953h-1.39zm2.485-5.343h2.906l.703-3.36h-2.922l-.687 3.36zm7.735 1.515l1.672-.218q.28 1.421.968 2.046.704.625 1.688.625 1.187 0 2-.812.812-.828.812-2.031 0-1.141-.765-1.891-.75-.75-1.906-.75-.47 0-1.172.188l.187-1.47q.156.016.266.016 1.062 0 1.906-.546.86-.563.86-1.72 0-.921-.626-1.515-.609-.61-1.593-.61-.97 0-1.625.61-.641.61-.828 1.844l-1.672-.297q.297-1.687 1.375-2.61 1.093-.921 2.718-.921 1.11 0 2.047.484.938.469 1.422 1.297.5.828.5 1.75 0 .89-.469 1.61-.468.718-1.406 1.156 1.219.265 1.875 1.156.672.875.672 2.187 0 1.782-1.297 3.016t-3.281 1.234q-1.797 0-2.984-1.062-1.172-1.063-1.344-2.766zm16.657 3.594h-1.672V50.28q-.594.578-1.578 1.156-.985.562-1.766.859V50.67q1.406-.656 2.453-1.594 1.047-.937 1.485-1.812h1.078V60.92zm9.746-11.687v-1.907h1.672v1.907h-1.672zm0 11.687v-9.86h1.672v9.86h-1.672zm4.13 0v-9.86h1.5v1.407q1.093-1.625 3.14-1.625.89 0 1.64.328.75.313 1.11.844.375.515.531 1.219.094.468.094 1.625v6.062h-1.672v-6q0-1.016-.203-1.516-.187-.515-.687-.812-.5-.297-1.172-.297-1.063 0-1.844.672-.766.672-.766 2.578v5.375h-1.672z"/><path d="M510.496 92v24"/><path stroke="red" stroke-width="4" stroke-linejoin="round" stroke-linecap="butt" d="M510.496 92v24"/><path d="M371.496 116v24"/><path stroke="#00f" stroke-width="4" stroke-linejoin="round" stroke-linecap="butt" d="M371.496 116v24"/><path d="M102.496 148h168v72h-168z"/><path fill="#000" d="M112.965 174.92v-13.594h5.125q1.36 0 2.078.125 1 .172 1.672.64.672.47 1.078 1.313.422.844.422 1.844 0 1.734-1.11 2.938-1.093 1.203-3.984 1.203h-3.484v5.531h-1.797zm1.797-7.14h3.515q1.75 0 2.47-.641.734-.657.734-1.828 0-.86-.438-1.47-.422-.609-1.125-.796-.453-.125-1.672-.125h-3.484v4.86zm10.397 7.14v-13.594h1.671v13.594h-1.671zm10.613-1.219q-.937.797-1.797 1.125-.86.313-1.843.313-1.61 0-2.485-.782-.875-.796-.875-2.03 0-.735.328-1.329t.86-.953q.53-.36 1.203-.547.5-.14 1.484-.25 2.031-.25 2.985-.578v-.438q0-1.015-.47-1.437-.64-.563-1.905-.563-1.172 0-1.735.407-.562.406-.828 1.468l-1.64-.234q.234-1.047.734-1.687.515-.641 1.469-.985.968-.36 2.25-.36 1.265 0 2.046.298.782.297 1.157.75t.515 1.14q.094.422.094 1.532v2.234q0 2.328.094 2.953.11.61.437 1.172h-1.75q-.265-.516-.328-1.219zm-.14-3.719q-.907.36-2.735.625-1.031.141-1.453.329-.422.187-.656.546-.235.36-.235.797 0 .672.5 1.125.516.438 1.485.438.969 0 1.719-.422.75-.438 1.109-1.156.266-.578.266-1.672v-.61zm4 8.735l-.172-1.563q.547.141.953.141.547 0 .875-.188.344-.187.563-.515.156-.25.5-1.25.047-.14.156-.406l-3.734-9.875h1.797l2.047 5.718q.406 1.078.718 2.282.282-1.157.688-2.25l2.094-5.75h1.671l-3.75 10.03q-.593 1.626-.937 2.235-.438.828-1.016 1.203-.578.391-1.375.391-.484 0-1.078-.203zm16.156-6.969l1.72.219q-.407 1.5-1.516 2.344-1.094.828-2.813.828-2.156 0-3.422-1.328-1.265-1.329-1.265-3.735 0-2.484 1.265-3.86 1.281-1.374 3.328-1.374 1.985 0 3.235 1.344 1.25 1.343 1.25 3.796 0 .141-.016.438h-7.344q.094 1.625.922 2.484.828.86 2.063.86.906 0 1.547-.469.656-.484 1.046-1.547zm-5.484-2.703h5.5q-.11-1.234-.625-1.86-.797-.968-2.078-.968-1.14 0-1.938.781-.78.766-.859 2.047zm9.095 5.875v-9.86h1.5v1.5q.578-1.046 1.062-1.374.484-.344 1.078-.344.844 0 1.719.547l-.578 1.547q-.61-.36-1.235-.36-.546 0-.984.328-.422.328-.61.907-.28.89-.28 1.953v5.156h-1.672zm11.114.234l.813-3.953h-1.578v-1.39h1.859l.688-3.36h-2.547v-1.39h2.812l.813-3.97h1.39l-.812 3.97h2.922l.812-3.97h1.406l-.812 3.97h1.61v1.39h-1.891l-.688 3.36h2.578v1.39h-2.86l-.812 3.953h-1.39l.797-3.953h-2.907l-.812 3.953h-1.39zm2.485-5.343h2.906l.703-3.36h-2.922l-.687 3.36zm14.016 5.109h-1.672v-10.64q-.594.577-1.578 1.156-.984.562-1.766.859v-1.625q1.407-.656 2.454-1.594 1.046-.937 1.484-1.812h1.078v13.656zm4.079-3.563l1.765-.156q.188 1.281.891 1.938.719.64 1.719.64 1.203 0 2.031-.906.844-.906.844-2.422 0-1.422-.813-2.25-.797-.828-2.093-.828-.797 0-1.454.375-.64.36-1.015.953l-1.578-.203 1.328-7h6.765v1.61h-5.437l-.734 3.64q1.234-.844 2.578-.844 1.781 0 3 1.235 1.234 1.234 1.234 3.172 0 1.843-1.078 3.187-1.313 1.656-3.578 1.656-1.86 0-3.031-1.03-1.172-1.048-1.344-2.767zm15.403-1.359q0-2.734 1.53-4.062 1.267-1.094 3.095-1.094 2.03 0 3.312 1.344 1.297 1.328 1.297 3.671 0 1.907-.578 3-.563 1.079-1.656 1.688-1.078.594-2.375.594-2.063 0-3.344-1.328-1.281-1.329-1.281-3.813zm1.718 0q0 1.89.829 2.828.828.938 2.078.938t2.062-.938q.828-.953.828-2.89 0-1.829-.828-2.766-.828-.938-2.062-.938-1.25 0-2.078.938-.829.937-.829 2.828zm15.735 4.922v-1.453q-1.14 1.672-3.125 1.672-.859 0-1.625-.328-.75-.344-1.125-.844-.359-.5-.515-1.235-.094-.5-.094-1.562v-6.11h1.672v5.47q0 1.312.094 1.765.156.656.672 1.031.515.375 1.265.375.75 0 1.406-.375.657-.39.922-1.047.282-.672.282-1.937v-5.281h1.671v9.859h-1.5zm7.58-1.5l.234 1.484q-.703.141-1.266.141-.906 0-1.406-.281-.5-.297-.703-.75-.203-.469-.203-1.985v-5.656h-1.235v-1.312h1.235v-2.438l1.656-1v3.438h1.687v1.312h-1.687v5.75q0 .719.078.922.094.203.297.328.203.125.578.125.266 0 .734-.078zm-118.564 23.5v-13.594h5.125q1.36 0 2.078.125 1 .172 1.672.64.672.47 1.078 1.313.422.844.422 1.844 0 1.734-1.11 2.938-1.093 1.203-3.984 1.203h-3.484v5.531h-1.797zm1.797-7.14h3.515q1.75 0 2.47-.641.734-.657.734-1.828 0-.86-.438-1.47-.422-.609-1.125-.796-.453-.125-1.672-.125h-3.484v4.86zm10.397 7.14v-13.594h1.671v13.594h-1.671zm10.613-1.219q-.937.797-1.797 1.125-.86.313-1.843.313-1.61 0-2.485-.782-.875-.796-.875-2.03 0-.735.328-1.329t.86-.953q.53-.36 1.203-.547.5-.14 1.484-.25 2.031-.25 2.985-.578v-.438q0-1.015-.47-1.437-.64-.563-1.905-.563-1.172 0-1.735.407-.562.406-.828 1.468l-1.64-.234q.234-1.047.734-1.687.515-.641 1.469-.985.968-.36 2.25-.36 1.265 0 2.046.298.782.297 1.157.75t.515 1.14q.094.422.094 1.532v2.234q0 2.328.094 2.953.11.61.437 1.172h-1.75q-.265-.516-.328-1.219zm-.14-3.719q-.907.36-2.735.625-1.031.141-1.453.329-.422.187-.656.546-.235.36-.235.797 0 .672.5 1.125.516.438 1.485.438.969 0 1.719-.422.75-.438 1.109-1.156.266-.578.266-1.672v-.61zm4 8.735l-.172-1.563q.547.141.953.141.547 0 .875-.188.344-.187.563-.515.156-.25.5-1.25.047-.14.156-.406l-3.734-9.875h1.797l2.047 5.718q.406 1.078.718 2.282.282-1.157.688-2.25l2.094-5.75h1.671l-3.75 10.03q-.593 1.626-.937 2.235-.438.828-1.016 1.203-.578.391-1.375.391-.484 0-1.078-.203zm16.156-6.969l1.72.219q-.407 1.5-1.516 2.344-1.094.828-2.813.828-2.156 0-3.422-1.328-1.265-1.329-1.265-3.735 0-2.484 1.265-3.86 1.281-1.374 3.328-1.374 1.985 0 3.235 1.344 1.25 1.343 1.25 3.796 0 .141-.016.438h-7.344q.094 1.625.922 2.484.828.86 2.063.86.906 0 1.547-.469.656-.484 1.046-1.547zm-5.484-2.703h5.5q-.11-1.234-.625-1.86-.797-.968-2.078-.968-1.14 0-1.938.781-.78.766-.859 2.047zm9.095 5.875v-9.86h1.5v1.5q.578-1.046 1.062-1.374.484-.344 1.078-.344.844 0 1.719.547l-.578 1.547q-.61-.36-1.235-.36-.546 0-.984.328-.422.328-.61.907-.28.89-.28 1.953v5.156h-1.672zm11.114.234l.813-3.953h-1.578v-1.39h1.859l.688-3.36h-2.547v-1.39h2.812l.813-3.97h1.39l-.812 3.97h2.922l.812-3.97h1.406l-.812 3.97h1.61v1.39h-1.891l-.688 3.36h2.578v1.39h-2.86l-.812 3.953h-1.39l.797-3.953h-2.907l-.812 3.953h-1.39zm2.485-5.343h2.906l.703-3.36h-2.922l-.687 3.36zm7.735 1.515l1.672-.219q.28 1.422.968 2.047.704.625 1.688.625 1.187 0 2-.812.812-.828.812-2.031 0-1.141-.765-1.891-.75-.75-1.906-.75-.47 0-1.172.187l.187-1.468q.156.015.266.015 1.062 0 1.906-.547.86-.562.86-1.718 0-.922-.626-1.516-.609-.61-1.593-.61-.97 0-1.625.61-.641.61-.828 1.844l-1.672-.297q.297-1.688 1.375-2.61 1.093-.921 2.718-.921 1.11 0 2.047.484.938.469 1.422 1.297.5.828.5 1.75 0 .89-.469 1.61-.468.718-1.406 1.156 1.219.265 1.875 1.156.672.875.672 2.187 0 1.782-1.297 3.016t-3.281 1.234q-1.797 0-2.984-1.062-1.172-1.063-1.344-2.766zm10.625.453l1.594-.156q.203 1.14.781 1.656.579.5 1.485.5.765 0 1.344-.343.578-.36.953-.954.375-.593.625-1.593t.25-2.032q0-.109-.016-.343-.5.797-1.375 1.297-.86.5-1.875.5-1.687 0-2.86-1.22-1.171-1.234-1.171-3.234 0-2.078 1.219-3.328 1.234-1.265 3.062-1.265 1.328 0 2.422.718 1.11.704 1.672 2.032.578 1.328.578 3.828 0 2.61-.578 4.156-.563 1.547-1.688 2.36-1.109.796-2.609.796-1.594 0-2.61-.89-1-.89-1.203-2.485zm6.829-6q0-1.437-.766-2.28-.766-.86-1.844-.86-1.11 0-1.937.922-.828.906-.828 2.343 0 1.313.78 2.125.798.797 1.938.797 1.172 0 1.907-.797.75-.812.75-2.25zm8.95-2.547v-1.906h1.671v1.906h-1.672zm0 11.688v-9.86h1.671v9.86h-1.672zm4.128 0v-9.86h1.5v1.407q1.094-1.625 3.141-1.625.89 0 1.64.328.75.312 1.11.844.375.515.531 1.218.094.47.094 1.625v6.063h-1.672v-6q0-1.016-.203-1.516-.187-.515-.687-.812-.5-.297-1.172-.297-1.063 0-1.844.672-.766.672-.766 2.578v5.375h-1.672z"/><path d="M166.496 116v24"/><path stroke="#00f" stroke-width="4" stroke-linejoin="round" stroke-linecap="butt" d="M166.496 116v24"/></g></svg>